{
	"asset":{
		"version":"2.0",
		"generator":"Created using the official Cinema 4D glTF Exporter 1.000x284978"
	},
	"textures":[{
		"sampler":0,
		"source":0
	}],
	"scenes":[{
		"nodes":[0]
	}],
	"nodes":[{
		"name":"nowy",
		"scale":[19.513141632080079,
		21.64225959777832,
		21.64225959777832],
		"translation":[13.414129257202149,
		0.10249611735343933,
		-59.433589935302737],
		"rotation":[-8.146034247147327e-8,
		0.0,
		0.0,
		-1.0],
		"mesh":0
	}],
	"samplers":[{
		"magFilter":9729,
		"minFilter":9729,
		"wrapS":10497,
		"wrapT":10497
	}],
	"meshes":[{
		"name":"nowy",
		"primitives":[{
			"attributes":{
				"POSITION":1,
				"NORMAL":2,
				"TEXCOORD_0":3
			},
			"indices":0,
			"material":0
		}]
	}],
	"accessors":[{
		"bufferView":0,
		"type":"SCALAR",
		"componentType":5123,
		"count":21366,
		"byteOffset":0,
		"min":[0],
		"max":[7737]
	},
	{
		"bufferView":1,
		"type":"VEC3",
		"componentType":5126,
		"count":7738,
		"byteOffset":0,
		"min":[-7.466641902923584,
		-0.03723689913749695,
		-3.1673521995544435],
		"max":[7.778967380523682,
		2.096954584121704,
		10.578429222106934]
	},
	{
		"bufferView":1,
		"type":"VEC3",
		"componentType":5126,
		"count":7738,
		"byteOffset":12,
		"min":[-1.0,
		-1.0,
		-1.0],
		"max":[1.0,
		1.0,
		1.0]
	},
	{
		"bufferView":1,
		"type":"VEC2",
		"componentType":5126,
		"count":7738,
		"byteOffset":24,
		"min":[0.0006531104445457459,
		0.0006531104445457459],
		"max":[0.9682747721672058,
		0.9980506896972656]
	}],
	"bufferViews":[{
		"buffer":0,
		"byteOffset":0,
		"target":34963,
		"byteLength":42732
	},
	{
		"buffer":0,
		"byteOffset":42732,
		"target":34962,
		"byteLength":247616,
		"byteStride":32
	}],
	"buffers":[{
		"uri":"data:application/octet-stream;base64,",
		"byteLength":290348
	}],
	"images":[{
		"uri":"data:image/jpeg;base64,"
	}],
	"materials":[{
		"pbrMetallicRoughness":{
			"baseColorTexture":{
				"index":0
			},
			"baseColorFactor":[0.8,
			0.8,
			0.8,
			1.0],
			"metallicFactor":0.0,
			"roughnessFactor":0.5
		},
		"emissiveFactor":[0.0,
		0.0,
		0.0],
		"alphaMode":"OPAQUE",
		"doubleSided":false,
		"name":"nowy"
	}]
}