{
	"asset":{
		"version":"2.0",
		"generator":"Created using the official Cinema 4D glTF Exporter 1.000x284978"
	},
	"scenes":[{
		"nodes":[0]
	}],
	"materials":[{
		"pbrMetallicRoughness":{
			"baseColorFactor":[0.33,
			0.15950000000000004,
			0.0,
			0.9014],
			"metallicFactor":0.0,
			"roughnessFactor":0.5
		},
		"emissiveFactor":[0.0,
		0.0,
		0.0],
		"alphaMode":"BLEND",
		"doubleSided":false,
		"name":"Mat.6"
	},
	{
		"pbrMetallicRoughness":{
			"baseColorFactor":[0.8,
			0.8,
			0.8,
			0.1449999999999999],
			"metallicFactor":0.0,
			"roughnessFactor":0.5
		},
		"emissiveFactor":[0.0,
		0.0,
		0.0],
		"alphaMode":"BLEND",
		"doubleSided":false,
		"name":"vetro"
	}],
	"meshes":[{
		"name":"bottiglia.1-Mat.6",
		"primitives":[{
			"material":0,
			"attributes":{
				"POSITION":1,
				"NORMAL":2,
				"TEXCOORD_0":3
			},
			"indices":0
		}]
	},
	{
		"name":"bottiglia.1-vetro",
		"primitives":[{
			"material":1,
			"attributes":{
				"POSITION":5,
				"NORMAL":6,
				"TEXCOORD_0":7
			},
			"indices":4
		}]
	}],
	"nodes":[{
		"name":"bottiglia.1",
		"translation":[46.68580627441406,
		20.848312377929689,
		-18.09397315979004],
		"rotation":[0.0,
		0.0,
		0.0,
		-1.0],
		"scale":[1.0,
		1.0,
		1.0],
		"children":[1,
		2]
	},
	{
		"name":"bottiglia.1-Mat.6",
		"mesh":0
	},
	{
		"name":"bottiglia.1-vetro",
		"mesh":1
	}],
	"accessors":[{
		"bufferView":0,
		"type":"SCALAR",
		"componentType":5123,
		"count":9498,
		"byteOffset":0,
		"min":[0],
		"max":[1714]
	},
	{
		"bufferView":1,
		"type":"VEC3",
		"componentType":5126,
		"count":1715,
		"byteOffset":0,
		"min":[44.838199615478519,
		11.821656227111817,
		-20.024869918823243],
		"max":[49.24517822265625,
		24.29123878479004,
		-15.617889404296875]
	},
	{
		"bufferView":1,
		"type":"VEC3",
		"componentType":5126,
		"count":1715,
		"byteOffset":12,
		"min":[-0.9998437762260437,
		-0.9995625615119934,
		-0.9998437762260437],
		"max":[0.9998437762260437,
		1.0,
		0.9998437762260437]
	},
	{
		"bufferView":1,
		"type":"VEC2",
		"componentType":5126,
		"count":1715,
		"byteOffset":24,
		"min":[0.0,
		0.0],
		"max":[0.3849932849407196,
		1.0]
	},
	{
		"bufferView":2,
		"type":"SCALAR",
		"componentType":5123,
		"count":38784,
		"byteOffset":0,
		"min":[0],
		"max":[7795]
	},
	{
		"bufferView":3,
		"type":"VEC3",
		"componentType":5126,
		"count":7796,
		"byteOffset":0,
		"min":[44.59439468383789,
		11.245187759399414,
		-20.27329444885254],
		"max":[49.480499267578128,
		28.45170783996582,
		-15.387189865112305]
	},
	{
		"bufferView":3,
		"type":"VEC3",
		"componentType":5126,
		"count":7796,
		"byteOffset":12,
		"min":[-0.9999688267707825,
		-0.9998750686645508,
		-0.9999688267707825],
		"max":[0.9999688267707825,
		0.9997813105583191,
		0.9999688267707825]
	},
	{
		"bufferView":3,
		"type":"VEC2",
		"componentType":5126,
		"count":7796,
		"byteOffset":24,
		"min":[0.008191960863769055,
		0.00819195993244648],
		"max":[0.9196300506591797,
		0.9918080568313599]
	}],
	"bufferViews":[{
		"buffer":0,
		"byteOffset":0,
		"byteLength":18996,
		"target":34963
	},
	{
		"buffer":0,
		"byteOffset":18996,
		"byteLength":54880,
		"target":34962,
		"byteStride":32
	},
	{
		"buffer":1,
		"byteOffset":0,
		"byteLength":77568,
		"target":34963
	},
	{
		"buffer":1,
		"byteOffset":77568,
		"byteLength":249472,
		"target":34962,
		"byteStride":32
	}],
	"buffers":[{
		"uri":"data:application/octet-stream;base64,",
		"byteLength":73876
	},
	{
		"uri":"data:application/octet-stream;base64,",
		"byteLength":327040
	}]
}