{
	"asset":{
		"version":"2.0",
		"generator":"Created using the official Cinema 4D glTF Exporter 1.000x284978"
	},
	"scenes":[{
		"nodes":[0]
	}],
	"nodes":[{
		"name":"liquido",
		"rotation":[0.0,
		0.0,
		0.0,
		-1.0],
		"translation":[0.0,
		0.0,
		0.0],
		"mesh":0,
		"scale":[1.0,
		1.0,
		0.8799999952316284]
	}],
	"materials":[{
		"pbrMetallicRoughness":{
			"baseColorFactor":[0.15,
			0.0789500000000003,
			0.0030000000000000028,
			0.7],
			"metallicFactor":0.0,
			"roughnessFactor":0.5
		},
		"emissiveFactor":[0.0,
		0.0,
		0.0],
		"name":"liquido",
		"alphaMode":"BLEND",
		"doubleSided":false
	}],
	"meshes":[{
		"name":"liquido",
		"primitives":[{
			"attributes":{
				"POSITION":1,
				"NORMAL":2,
				"TEXCOORD_0":3
			},
			"indices":0,
			"material":0
		}]
	}],
	"accessors":[{
		"bufferView":0,
		"type":"SCALAR",
		"componentType":5123,
		"count":9498,
		"byteOffset":0,
		"min":[0],
		"max":[1714]
	},
	{
		"bufferView":1,
		"type":"VEC3",
		"componentType":5126,
		"count":1715,
		"byteOffset":0,
		"min":[-57.98657989501953,
		-222.97503662109376,
		-57.98657989501953],
		"max":[57.98657989501953,
		103.97435760498047,
		57.98657989501953]
	},
	{
		"bufferView":1,
		"type":"VEC3",
		"componentType":5126,
		"count":1715,
		"byteOffset":12,
		"min":[-0.9998432993888855,
		-1.0,
		-0.9998432993888855],
		"max":[0.9998432993888855,
		0.9995723366737366,
		0.9998432993888855]
	},
	{
		"bufferView":1,
		"type":"VEC2",
		"componentType":5126,
		"count":1715,
		"byteOffset":24,
		"min":[0.0,
		0.0],
		"max":[0.3849932849407196,
		1.0]
	}],
	"bufferViews":[{
		"buffer":0,
		"byteOffset":0,
		"byteLength":18996,
		"target":34963
	},
	{
		"buffer":0,
		"byteOffset":18996,
		"byteLength":54880,
		"target":34962,
		"byteStride":32
	}],
	"buffers":[{
		"uri":"data:application/octet-stream;base64,",
		"byteLength":73876
	}]
}