{
	"asset":{
		"version":"2.0",
		"generator":"Created using the official Cinema 4D glTF Exporter 1.000x284978"
	},
	"scenes":[{
		"nodes":[0]
	}],
	"materials":[{
		"pbrMetallicRoughness":{
			"baseColorFactor":[0.10950000000000002,
			0.73,
			0.4714583333333334,
			1.0],
			"metallicFactor":0.0,
			"roughnessFactor":0.365
		},
		"emissiveFactor":[0.0,
		0.0,
		0.0],
		"alphaMode":"OPAQUE",
		"doubleSided":false,
		"name":"Piano.008_Piano.010"
	}],
	"nodes":[{
		"name":"Piano.008_Piano.010",
		"mesh":0
	}],
	"meshes":[{
		"name":"Piano.008_Piano.010",
		"primitives":[{
			"attributes":{
				"POSITION":1,
				"NORMAL":2,
				"TEXCOORD_0":3
			},
			"indices":0,
			"material":0
		}]
	}],
	"accessors":[{
		"bufferView":0,
		"type":"SCALAR",
		"componentType":5123,
		"count":1854,
		"byteOffset":0,
		"min":[0],
		"max":[995]
	},
	{
		"bufferView":1,
		"type":"VEC3",
		"componentType":5126,
		"count":996,
		"byteOffset":0,
		"min":[-4.838079929351807,
		-1.097430944442749,
		-0.2044380009174347],
		"max":[-4.12949800491333,
		1.0842150449752808,
		0.36903101205825808]
	},
	{
		"bufferView":1,
		"type":"VEC3",
		"componentType":5126,
		"count":996,
		"byteOffset":12,
		"min":[-1.0,
		-0.9999688267707825,
		-0.9999688267707825],
		"max":[0.9996875524520874,
		0.9902188181877136,
		0.9971563220024109]
	},
	{
		"bufferView":1,
		"type":"VEC2",
		"componentType":5126,
		"count":996,
		"byteOffset":24,
		"min":[0.0,
		0.0],
		"max":[1.0,
		1.0]
	}],
	"bufferViews":[{
		"buffer":0,
		"byteOffset":0,
		"byteLength":3708,
		"target":34963
	},
	{
		"buffer":0,
		"byteOffset":3708,
		"byteLength":31872,
		"target":34962,
		"byteStride":32
	}],
	"buffers":[{
		"uri":"data:application/octet-stream;base64,",
		"byteLength":35580
	}]
}