{
	"asset":{
		"version":"2.0",
		"generator":"Created using the official Cinema 4D glTF Exporter 1.000x284978"
	},
	"images":[{
		"uri":"data:image/jpeg;base64,"
	},
	{
		"uri":"data:image/jpeg;base64,"
	}],
	"scenes":[{
		"nodes":[0]
	}],
	"nodes":[{
		"name":"divano.2",
		"translation":[127.93962097167969,
		-136.17315673828126,
		-323.1271667480469],
		"rotation":[1.0,
		1.825012141409843e-8,
		-0.000044245709432289007,
		-8.0748949193854e-13],
		"scale":[-1.0,
		1.0,
		1.0],
		"mesh":0
	}],
	"materials":[{
		"pbrMetallicRoughness":{
			"baseColorFactor":[1.0,
			1.0,
			1.0,
			1.0],
			"metallicFactor":0.0,
			"roughnessFactor":0.5
		},
		"occlusionTexture":{
			"index":0,
			"strength":1.0
		},
		"emissiveTexture":{
			"index":1
		},
		"emissiveFactor":[1.0,
		1.0,
		1.0],
		"alphaMode":"OPAQUE",
		"doubleSided":false,
		"name":"divano.4"
	}],
	"meshes":[{
		"name":"divano.2",
		"primitives":[{
			"attributes":{
				"POSITION":1,
				"NORMAL":2,
				"TEXCOORD_0":3
			},
			"indices":0,
			"material":0
		}]
	}],
	"accessors":[{
		"bufferView":0,
		"type":"SCALAR",
		"componentType":5123,
		"count":36078,
		"byteOffset":0,
		"min":[0],
		"max":[7367]
	},
	{
		"bufferView":1,
		"type":"VEC3",
		"componentType":5126,
		"count":7368,
		"byteOffset":0,
		"min":[-554.3866577148438,
		141.47369384765626,
		-57.71904754638672],
		"max":[-243.55116271972657,
		244.24595642089845,
		141.5428466796875]
	},
	{
		"bufferView":1,
		"type":"VEC3",
		"componentType":5126,
		"count":7368,
		"byteOffset":12,
		"min":[-1.0,
		-1.0,
		-1.0],
		"max":[1.0,
		1.0,
		1.0]
	},
	{
		"bufferView":1,
		"type":"VEC2",
		"componentType":5126,
		"count":7368,
		"byteOffset":24,
		"min":[0.007921602576971054,
		0.007659732364118099],
		"max":[0.992078423500061,
		0.9923402070999146]
	}],
	"bufferViews":[{
		"buffer":0,
		"byteOffset":0,
		"byteLength":72156,
		"target":34963
	},
	{
		"buffer":0,
		"byteOffset":72156,
		"byteLength":235776,
		"target":34962,
		"byteStride":32
	}],
	"buffers":[{
		"uri":"data:application/octet-stream;base64,",
		"byteLength":307932
	}],
	"samplers":[{
		"magFilter":9729,
		"minFilter":9729,
		"wrapS":10497,
		"wrapT":10497
	},
	{
		"magFilter":9729,
		"minFilter":9729,
		"wrapS":10497,
		"wrapT":10497
	}],
	"textures":[{
		"sampler":0,
		"source":0
	},
	{
		"sampler":1,
		"source":1
	}]
}