{
	"asset":{
		"generator":"Created using the official Cinema 4D glTF Exporter 1.000x284978",
		"version":"2.0"
	},
	"nodes":[{
		"name":"Piano_020_Piano_1",
		"translation":[0.0,
		0.0,
		0.0],
		"rotation":[0.0,
		0.0,
		0.0,
		-1.0],
		"scale":[21.0,
		21.0,
		21.0],
		"children":[1]
	},
	{
		"name":"Piano_020_Piano_1",
		"mesh":0
	}],
	"scenes":[{
		"nodes":[0]
	}],
	"materials":[{
		"pbrMetallicRoughness":{
			"baseColorFactor":[0.8,
			0.8,
			0.8,
			1.0],
			"metallicFactor":0.0,
			"roughnessFactor":0.5
		},
		"occlusionTexture":{
			"index":0,
			"strength":1.0
		},
		"emissiveTexture":{
			"index":1
		},
		"emissiveFactor":[1.0,
		1.0,
		1.0],
		"alphaMode":"OPAQUE",
		"doubleSided":false,
		"name":"Piano.020_Piano"
	}],
	"meshes":[{
		"name":"Piano_020_Piano_1",
		"primitives":[{
			"attributes":{
				"POSITION":1,
				"NORMAL":2,
				"TEXCOORD_0":3
			},
			"indices":0,
			"material":0
		}]
	}],
	"accessors":[{
		"bufferView":0,
		"type":"SCALAR",
		"componentType":5123,
		"count":1497,
		"byteOffset":0,
		"min":[0],
		"max":[701]
	},
	{
		"bufferView":1,
		"type":"VEC3",
		"componentType":5126,
		"count":702,
		"byteOffset":0,
		"min":[-9.498786926269532,
		0.013310999609529972,
		-14.0],
		"max":[9.498786926269532,
		5.0133137702941898,
		14.002809524536133]
	},
	{
		"bufferView":1,
		"type":"VEC3",
		"componentType":5126,
		"count":702,
		"byteOffset":12,
		"min":[-1.0,
		-1.0,
		-1.0],
		"max":[1.0,
		1.0,
		1.0]
	},
	{
		"bufferView":1,
		"type":"VEC2",
		"componentType":5126,
		"count":702,
		"byteOffset":24,
		"min":[0.008461538702249527,
		0.008398771286010743],
		"max":[0.9915384650230408,
		0.9916012287139893]
	}],
	"bufferViews":[{
		"buffer":0,
		"byteOffset":0,
		"byteLength":2994,
		"target":34963
	},
	{
		"buffer":0,
		"byteOffset":2996,
		"byteLength":22464,
		"target":34962,
		"byteStride":32
	}],
	"buffers":[{
		"uri":"data:application/octet-stream;base64,",
		"byteLength":25460
	}],
	"images":[{
		"uri":"data:image/jpeg;base64,"
	},
	{
		"uri":"data:image/jpeg;base64,"
	}],
	"samplers":[{
		"magFilter":9729,
		"minFilter":9729,
		"wrapS":10497,
		"wrapT":10497
	},
	{
		"magFilter":9729,
		"minFilter":9729,
		"wrapS":10497,
		"wrapT":10497
	}],
	"textures":[{
		"sampler":0,
		"source":0
	},
	{
		"sampler":1,
		"source":1
	}]
}