# WaveFront *.obj file (generated by Cinema 4D)

mtllib ./parquet.mtl

v -41.622462 0.584612 42.059010
v -157.274964 0.584612 42.059010
v -41.622483 0.584570 294.058989
v 41.580882 0.584570 294.059010
v 41.580882 0.584612 42.059010
v 157.684758 0.584612 42.059010
v 157.684758 0.584633 -41.940948
v 41.580861 0.584633 -41.940969
v 41.580882 0.584696 -293.940990
v -41.622462 0.584696 -293.940990
v -41.622462 0.584633 -41.940969
v -157.274880 0.584633 -41.940969
v -157.274922 0.584612 0.668514
# 13 vertices

vn -0.000000 1.000000 0.000000
vn -0.000000 1.000000 0.000000
vn -0.000000 1.000000 0.000000
vn -0.000000 1.000000 0.000000
vn -0.000000 1.000000 0.000000
vn 0.000000 1.000000 0.000000
vn -0.000000 1.000000 0.000000
vn -0.000000 1.000000 0.000000
vn -0.000000 1.000000 0.000000
vn 0.000000 1.000000 0.000000
# 10 normals

vt 0.523344 0.546779 0.000000
vt 0.523344 0.453222 0.000000
vt 0.394031 0.453222 0.000000
vt 0.394031 0.546779 0.000000
vt 0.394031 0.172550 0.000000
vt 0.301361 0.172550 0.000000
vt 0.301361 0.453222 0.000000
vt 0.172550 0.453222 0.000000
vt 0.172550 0.499321 0.000000
vt 0.359801 0.296595 0.000000
vt 0.301361 0.546779 0.000000
vt 0.172550 0.546779 0.000000
vt 0.301361 0.827450 0.000000
vt 0.394031 0.827450 0.000000
# 14 texture coordinates

o pavimento3
usemtl pavimento3
f 8/4/3 9/14/10 10/13/10 11/11/8 12/12/9 13/9/7 2/8/6 1/7/5 3/6/4 4/5/4 5/3/2 6/2/1 7/1/1

