# WaveFront *.obj file (generated by Cinema 4D)

mtllib ./render_coca.mtl

v 29.572717 28.300357 293.316151
v -0.820905 28.300357 293.316120
v -31.214528 28.300357 293.316090
v 29.572717 46.923938 293.322159
v -0.820905 46.923938 293.322128
v -31.214528 46.923938 293.322097
v 29.572717 65.547518 293.328167
v -0.820905 65.547519 293.328136
v -31.214528 65.547519 293.328105
# 9 vertices

vn 0.000002 0.000322 -1.000000
vn 0.000002 0.000322 -1.000000
vn 0.000001 0.000322 -1.000000
vn 0.000001 0.000322 -1.000000
vn 0.000001 0.000322 -1.000000
vn 0.000001 0.000321 -1.000000
vn 0.000002 0.000322 -1.000000
vn 0.000001 0.000322 -1.000000
vn 0.000001 0.000323 -1.000000
# 9 normals

vt 0.000000 0.000000 0.000000
vt 0.000000 0.500000 0.000000
vt 0.500000 0.500000 0.000000
vt 0.500000 0.000000 0.000000
vt 1.000000 0.500000 0.000000
vt 1.000000 0.000000 0.000000
vt 0.000000 1.000000 0.000000
vt 0.500000 1.000000 0.000000
vt 1.000000 1.000000 0.000000
# 9 texture coordinates

o render_coca
usemtl auclairedelune
f 2/4/4 5/3/3 4/2/2 1/1/1
f 3/6/6 6/5/5 5/3/3 2/4/4
f 5/3/3 8/8/8 7/7/7 4/2/2
f 6/5/5 9/9/9 8/8/8 5/3/3

