{
	"asset":{
		"version":"2.0",
		"generator":"Created using the official Cinema 4D glTF Exporter 1.000x284978"
	},
	"scenes":[{
		"nodes":[0]
	}],
	"materials":[{
		"pbrMetallicRoughness":{
			"baseColorFactor":[0.8,
			0.5066666666666662,
			0.0,
			1.0],
			"metallicFactor":0.0,
			"roughnessFactor":0.5
		},
		"emissiveFactor":[0.0,
		0.0,
		0.0],
		"alphaMode":"OPAQUE",
		"doubleSided":false,
		"name":"velluto"
	}],
	"nodes":[{
		"name":"Subdivision Surface.2",
		"children":[1]
	},
	{
		"name":"1",
		"translation":[1.6956536769866944,
		140.57647705078126,
		-69.16170501708985],
		"rotation":[0.0,
		0.0,
		0.0,
		-1.0],
		"mesh":0,
		"scale":[1.0,
		1.0,
		1.0]
	}],
	"meshes":[{
		"name":"1",
		"primitives":[{
			"attributes":{
				"POSITION":1,
				"NORMAL":2,
				"TEXCOORD_0":3
			},
			"indices":0,
			"material":0
		}]
	}],
	"accessors":[{
		"bufferView":0,
		"type":"SCALAR",
		"componentType":5123,
		"count":60000,
		"byteOffset":0,
		"min":[0],
		"max":[12365]
	},
	{
		"bufferView":1,
		"type":"VEC3",
		"componentType":5126,
		"count":12366,
		"byteOffset":0,
		"min":[-355.2316589355469,
		-1225.3948974609376,
		-98.4790267944336],
		"max":[311.9085388183594,
		-18.020151138305665,
		394.10845947265627]
	},
	{
		"bufferView":1,
		"type":"VEC3",
		"componentType":5126,
		"count":12366,
		"byteOffset":12,
		"min":[-0.9999663233757019,
		-0.9985724091529846,
		-0.9999648928642273],
		"max":[0.9999310374259949,
		0.994202196598053,
		0.999993085861206]
	},
	{
		"bufferView":1,
		"type":"VEC2",
		"componentType":5126,
		"count":12366,
		"byteOffset":24,
		"min":[0.0,
		0.0],
		"max":[1.0,
		1.0]
	}],
	"bufferViews":[{
		"buffer":0,
		"byteOffset":0,
		"byteLength":120000,
		"target":34963
	},
	{
		"buffer":0,
		"byteOffset":120000,
		"byteLength":395712,
		"target":34962,
		"byteStride":32
	}],
	"buffers":[{
		"uri":"data:application/octet-stream;base64,",
		"byteLength":515712
	}]
}