{
	"asset":{
		"version":"2.0",
		"generator":"Created using the official Cinema 4D glTF Exporter 1.000x284978"
	},
	"scenes":[{
		"nodes":[0]
	}],
	"nodes":[{
		"name":"Disc",
		"translation":[-279.26348876953127,
		1.8779220581054688,
		30.221254348754884],
		"rotation":[0.0,
		0.0,
		0.0,
		-1.0],
		"scale":[1.0,
		1.0,
		1.0],
		"mesh":0
	}],
	"meshes":[{
		"name":"Disc",
		"primitives":[{
			"attributes":{
				"POSITION":1,
				"NORMAL":2,
				"TEXCOORD_0":3
			},
			"indices":0,
			"material":0
		}]
	}],
	"accessors":[{
		"bufferView":0,
		"type":"SCALAR",
		"count":13818,
		"componentType":5123,
		"byteOffset":0,
		"min":[0],
		"max":[3092]
	},
	{
		"bufferView":1,
		"type":"VEC3",
		"count":3093,
		"componentType":5126,
		"byteOffset":0,
		"min":[-119.5465316772461,
		67.43572998046875,
		-192.5590362548828],
		"max":[135.07054138183595,
		70.43572998046875,
		-45.25990676879883]
	},
	{
		"bufferView":1,
		"type":"VEC3",
		"count":3093,
		"componentType":5126,
		"byteOffset":12,
		"min":[-0.9965286254882813,
		-1.0,
		-0.9988341331481934],
		"max":[0.9965277314186096,
		1.0,
		0.9988338947296143]
	},
	{
		"bufferView":1,
		"type":"VEC2",
		"count":3093,
		"componentType":5126,
		"byteOffset":24,
		"min":[0.0,
		0.0],
		"max":[1.0,
		1.0]
	}],
	"bufferViews":[{
		"buffer":0,
		"byteOffset":0,
		"byteLength":27636,
		"target":34963
	},
	{
		"buffer":0,
		"byteOffset":27636,
		"byteLength":98976,
		"target":34962,
		"byteStride":32
	}],
	"buffers":[{
		"uri":"data:application/octet-stream;base64,",
		"byteLength":126612
	}],
	"materials":[{
		"pbrMetallicRoughness":{
			"baseColorFactor":[0.5456,
			0.8019733333333333,
			0.88,
			0.14],
			"metallicFactor":0.0,
			"roughnessFactor":0.5
		},
		"emissiveFactor":[0.0,
		0.0,
		0.0],
		"alphaMode":"BLEND",
		"doubleSided":false,
		"name":"vetro"
	}]
}