# WaveFront *.obj file (generated by Cinema 4D)

mtllib ./vetrata.mtl

v -466.721725 266.641813 -142.258056
v -466.721725 340.205086 -142.258056
v -40.391554 266.641813 -142.258056
v -40.391554 340.205086 -142.258056
v -40.391554 266.641813 -143.792005
v -40.391554 340.205086 -143.792005
v -466.721725 266.641813 -143.792005
v -466.721725 340.205086 -143.792005
# 8 vertices

vn 0.000000 0.000000 1.000000
vn 1.000000 0.000000 0.000000
vn 0.000000 0.000000 -1.000000
vn -1.000000 0.000000 0.000000
vn 0.000000 1.000000 0.000000
vn 0.000000 -1.000000 0.000000
# 6 normals

vt 0.002955 0.683500 0.000000
vt 0.002955 0.994639 0.000000
vt 0.997045 0.994639 0.000000
vt 0.997045 0.683500 0.000000
vt 0.002955 0.005361 0.000000
vt 0.002955 0.316500 0.000000
vt 0.006532 0.316500 0.000000
vt 0.006532 0.005361 0.000000
vt 0.002955 0.361640 0.000000
vt 0.002955 0.672779 0.000000
vt 0.997045 0.672779 0.000000
vt 0.997045 0.361640 0.000000
vt 0.012443 0.005361 0.000000
vt 0.012443 0.316500 0.000000
vt 0.016020 0.316500 0.000000
vt 0.016020 0.005361 0.000000
vt 0.002955 0.344431 0.000000
vt 0.002955 0.350919 0.000000
vt 0.997045 0.350919 0.000000
vt 0.997045 0.344431 0.000000
vt 0.002955 0.327221 0.000000
vt 0.002955 0.333709 0.000000
vt 0.997045 0.333709 0.000000
vt 0.997045 0.327221 0.000000
# 24 texture coordinates

o vetrata.1
usemtl vetrata
f 3/4/1 4/3/1 2/2/1 1/1/1
f 5/8/2 6/7/2 4/6/2 3/5/2
f 7/12/3 8/11/3 6/10/3 5/9/3
f 1/16/4 2/15/4 8/14/4 7/13/4
f 4/20/5 6/19/5 8/18/5 2/17/5
f 5/24/6 3/23/6 1/22/6 7/21/6

