{
	"asset":{
		"version":"2.0",
		"generator":"Created using the official Cinema 4D glTF Exporter 1.000x284978"
	},
	"scenes":[{
		"nodes":[0]
	}],
	"nodes":[{
		"name":"finestra_anta_singola.5",
		"translation":[18.801708221435548,
		171.04896545410157,
		-133.13894653320313],
		"rotation":[0.0,
		0.0,
		0.0,
		-1.0],
		"children":[1,
		2,
		3,
		4,
		5,
		6,
		7],
		"scale":[1.0,
		1.0,
		1.0]
	},
	{
		"name":"finestra_anta_singola.5",
		"mesh":0
	},
	{
		"name":"finestra_anta_singola.5-Mat.4",
		"mesh":1
	},
	{
		"name":"finestra_anta_singola.5-Mat.3",
		"mesh":2
	},
	{
		"name":"finestra_anta_singola.5-Glass - Nodes",
		"mesh":3
	},
	{
		"name":"finestra_anta_singola.5-Mat.1",
		"mesh":4
	},
	{
		"name":"finestra_anta_singola.5-Mat.1",
		"mesh":5
	},
	{
		"name":"finestra_anta_singola.5-Mat.1",
		"mesh":6
	}],
	"materials":[{
		"pbrMetallicRoughness":{
			"baseColorFactor":[1.0,
			1.0,
			1.0,
			1.0],
			"metallicFactor":1.0,
			"roughnessFactor":1.0
		},
		"emissiveFactor":[0.0,
		0.0,
		0.0],
		"alphaMode":"OPAQUE",
		"doubleSided":false,
		"name":""
	},
	{
		"pbrMetallicRoughness":{
			"baseColorFactor":[0.8,
			0.8,
			0.8,
			1.0],
			"metallicFactor":0.0,
			"roughnessFactor":0.5
		},
		"emissiveFactor":[0.0,
		0.0,
		0.0],
		"alphaMode":"OPAQUE",
		"doubleSided":false,
		"name":"Mat.4"
	},
	{
		"pbrMetallicRoughness":{
			"baseColorFactor":[0.9500000000000001,
			0.6307999999999994,
			0.15200000000000006,
			1.0],
			"metallicFactor":0.0,
			"roughnessFactor":0.5
		},
		"emissiveFactor":[0.0,
		0.0,
		0.0],
		"alphaMode":"OPAQUE",
		"doubleSided":false,
		"name":"Mat.3"
	},
	{
		"pbrMetallicRoughness":{
			"baseColorFactor":[0.8,
			0.8,
			0.8,
			0.1191749789097003],
			"metallicFactor":0.5,
			"roughnessFactor":0.020000000000000019
		},
		"emissiveFactor":[0.0,
		0.0,
		0.0],
		"alphaMode":"BLEND",
		"doubleSided":false,
		"name":"Glass - Nodes"
	},
	{
		"pbrMetallicRoughness":{
			"baseColorFactor":[0.8,
			0.8,
			0.8,
			1.0],
			"metallicFactor":0.0,
			"roughnessFactor":0.5
		},
		"emissiveFactor":[0.0,
		0.0,
		0.0],
		"alphaMode":"OPAQUE",
		"doubleSided":false,
		"name":"Mat.1"
	}],
	"meshes":[{
		"name":"finestra_anta_singola.5",
		"primitives":[{
			"attributes":{
				"POSITION":1,
				"NORMAL":2,
				"TEXCOORD_0":3
			},
			"indices":0,
			"material":0
		}]
	},
	{
		"name":"finestra_anta_singola.5-Mat.4",
		"primitives":[{
			"attributes":{
				"POSITION":5,
				"NORMAL":6,
				"TEXCOORD_0":7
			},
			"indices":4,
			"material":1
		}]
	},
	{
		"name":"finestra_anta_singola.5-Mat.3",
		"primitives":[{
			"attributes":{
				"POSITION":9,
				"NORMAL":10,
				"TEXCOORD_0":11
			},
			"indices":8,
			"material":2
		}]
	},
	{
		"name":"finestra_anta_singola.5-Glass - Nodes",
		"primitives":[{
			"attributes":{
				"POSITION":13,
				"NORMAL":14,
				"TEXCOORD_0":15
			},
			"indices":12,
			"material":3
		}]
	},
	{
		"name":"finestra_anta_singola.5-Mat.1",
		"primitives":[{
			"attributes":{
				"POSITION":17,
				"NORMAL":18,
				"TEXCOORD_0":19
			},
			"indices":16,
			"material":4
		}]
	},
	{
		"name":"finestra_anta_singola.5-Mat.1",
		"primitives":[{
			"attributes":{
				"POSITION":21,
				"NORMAL":22,
				"TEXCOORD_0":23
			},
			"indices":20,
			"material":4
		}]
	},
	{
		"name":"finestra_anta_singola.5-Mat.1",
		"primitives":[{
			"attributes":{
				"POSITION":25,
				"NORMAL":26,
				"TEXCOORD_0":27
			},
			"indices":24,
			"material":4
		}]
	}],
	"accessors":[{
		"bufferView":0,
		"type":"SCALAR",
		"componentType":5123,
		"count":6504,
		"byteOffset":0,
		"min":[0],
		"max":[2667]
	},
	{
		"bufferView":1,
		"type":"VEC3",
		"componentType":5126,
		"count":2668,
		"byteOffset":0,
		"min":[-852.4432983398438,
		-171.04896545410157,
		-603.74267578125],
		"max":[514.0949096679688,
		171.04896545410157,
		603.74267578125]
	},
	{
		"bufferView":1,
		"type":"VEC3",
		"componentType":5126,
		"count":2668,
		"byteOffset":12,
		"min":[-1.0,
		-1.0,
		-1.0],
		"max":[1.0,
		1.0,
		1.0]
	},
	{
		"bufferView":1,
		"type":"VEC2",
		"componentType":5126,
		"count":2668,
		"byteOffset":24,
		"min":[0.007436733692884445,
		0.007436733692884445],
		"max":[0.9853965640068054,
		0.9925632476806641]
	},
	{
		"bufferView":2,
		"type":"SCALAR",
		"componentType":5123,
		"count":168,
		"byteOffset":0,
		"min":[0],
		"max":[48]
	},
	{
		"bufferView":3,
		"type":"VEC3",
		"componentType":5126,
		"count":49,
		"byteOffset":0,
		"min":[-485.4432678222656,
		-171.04896545410157,
		-339.8866271972656],
		"max":[500.5567321777344,
		39.4915885925293,
		566.1134033203125]
	},
	{
		"bufferView":3,
		"type":"VEC3",
		"componentType":5126,
		"count":49,
		"byteOffset":12,
		"min":[0.0,
		0.0,
		0.0],
		"max":[0.0,
		1.0,
		1.0]
	},
	{
		"bufferView":3,
		"type":"VEC2",
		"componentType":5126,
		"count":49,
		"byteOffset":24,
		"min":[0.17989416420459748,
		0.007436733692884445],
		"max":[0.4531562030315399,
		0.9227973222732544]
	},
	{
		"bufferView":4,
		"type":"SCALAR",
		"componentType":5123,
		"count":2610,
		"byteOffset":0,
		"min":[0],
		"max":[1038]
	},
	{
		"bufferView":5,
		"type":"VEC3",
		"componentType":5126,
		"count":1039,
		"byteOffset":0,
		"min":[-512.4432983398438,
		-171.04896545410157,
		-593.8865966796875],
		"max":[527.5567016601563,
		258.9510498046875,
		593.1134033203125]
	},
	{
		"bufferView":5,
		"type":"VEC3",
		"componentType":5126,
		"count":1039,
		"byteOffset":12,
		"min":[-1.0,
		-1.0,
		-1.0],
		"max":[1.0,
		1.0,
		1.0]
	},
	{
		"bufferView":5,
		"type":"VEC2",
		"componentType":5126,
		"count":1039,
		"byteOffset":24,
		"min":[0.007436733692884445,
		0.007436733692884445],
		"max":[0.9404245018959045,
		0.9411300420761108]
	},
	{
		"bufferView":6,
		"type":"SCALAR",
		"componentType":5123,
		"count":12,
		"byteOffset":0,
		"min":[0],
		"max":[5]
	},
	{
		"bufferView":7,
		"type":"VEC3",
		"componentType":5126,
		"count":6,
		"byteOffset":0,
		"min":[510.5948791503906,
		-68.03341674804688,
		102.07018280029297],
		"max":[510.5948791503906,
		65.95791625976563,
		159.61776733398438]
	},
	{
		"bufferView":7,
		"type":"VEC3",
		"componentType":5126,
		"count":6,
		"byteOffset":12,
		"min":[-1.0,
		0.0,
		0.0],
		"max":[-1.0,
		0.0,
		0.0]
	},
	{
		"bufferView":7,
		"type":"VEC2",
		"componentType":5126,
		"count":6,
		"byteOffset":24,
		"min":[0.8450442552566528,
		0.7726629972457886],
		"max":[0.8571212887763977,
		0.8007825613021851]
	},
	{
		"bufferView":8,
		"type":"SCALAR",
		"componentType":5123,
		"count":12,
		"byteOffset":0,
		"min":[0],
		"max":[7]
	},
	{
		"bufferView":9,
		"type":"VEC3",
		"componentType":5126,
		"count":8,
		"byteOffset":0,
		"min":[-498.8016052246094,
		-38.042083740234378,
		120.11669921875],
		"max":[-497.3016052246094,
		65.95791625976563,
		184.11669921875]
	},
	{
		"bufferView":9,
		"type":"VEC3",
		"componentType":5126,
		"count":8,
		"byteOffset":12,
		"min":[0.0,
		0.0,
		-1.0],
		"max":[0.0,
		0.0,
		1.0]
	},
	{
		"bufferView":9,
		"type":"VEC2",
		"componentType":5126,
		"count":8,
		"byteOffset":24,
		"min":[0.3222770690917969,
		0.9120017290115356],
		"max":[0.9709059000015259,
		0.9925632476806641]
	},
	{
		"bufferView":10,
		"type":"SCALAR",
		"componentType":5123,
		"count":36,
		"byteOffset":0,
		"min":[0],
		"max":[15]
	},
	{
		"bufferView":11,
		"type":"VEC3",
		"componentType":5126,
		"count":16,
		"byteOffset":0,
		"min":[-498.8016052246094,
		-41.042083740234378,
		117.11669921875],
		"max":[-497.3016052246094,
		68.95791625976563,
		187.11669921875]
	},
	{
		"bufferView":11,
		"type":"VEC3",
		"componentType":5126,
		"count":16,
		"byteOffset":12,
		"min":[-1.0,
		-1.0,
		0.0],
		"max":[0.0,
		1.0,
		0.0]
	},
	{
		"bufferView":11,
		"type":"VEC2",
		"componentType":5126,
		"count":16,
		"byteOffset":24,
		"min":[0.8424309492111206,
		0.8156560659408569],
		"max":[0.9419718980789185,
		0.9836963415145874]
	},
	{
		"bufferView":12,
		"type":"SCALAR",
		"componentType":5123,
		"count":48,
		"byteOffset":0,
		"min":[0],
		"max":[23]
	},
	{
		"bufferView":13,
		"type":"VEC3",
		"componentType":5126,
		"count":24,
		"byteOffset":0,
		"min":[-495.3016052246094,
		-41.042083740234378,
		117.11669921875],
		"max":[-493.8016052246094,
		68.95791625976563,
		187.11669921875]
	},
	{
		"bufferView":13,
		"type":"VEC3",
		"componentType":5126,
		"count":24,
		"byteOffset":12,
		"min":[0.0,
		-1.0,
		-1.0],
		"max":[1.0,
		1.0,
		1.0]
	},
	{
		"bufferView":13,
		"type":"VEC2",
		"componentType":5126,
		"count":24,
		"byteOffset":24,
		"min":[0.29019492864608767,
		0.28686559200286868],
		"max":[0.9267836213111877,
		0.9925632476806641]
	}],
	"bufferViews":[{
		"buffer":0,
		"byteOffset":0,
		"byteLength":13008,
		"target":34963
	},
	{
		"buffer":0,
		"byteOffset":13008,
		"byteLength":85376,
		"target":34962,
		"byteStride":32
	},
	{
		"buffer":1,
		"byteOffset":0,
		"byteLength":336,
		"target":34963
	},
	{
		"buffer":1,
		"byteOffset":336,
		"byteLength":1568,
		"target":34962,
		"byteStride":32
	},
	{
		"buffer":2,
		"byteOffset":0,
		"byteLength":5220,
		"target":34963
	},
	{
		"buffer":2,
		"byteOffset":5220,
		"byteLength":33248,
		"target":34962,
		"byteStride":32
	},
	{
		"buffer":3,
		"byteOffset":0,
		"byteLength":24,
		"target":34963
	},
	{
		"buffer":3,
		"byteOffset":24,
		"byteLength":192,
		"target":34962,
		"byteStride":32
	},
	{
		"buffer":4,
		"byteOffset":0,
		"byteLength":24,
		"target":34963
	},
	{
		"buffer":4,
		"byteOffset":24,
		"byteLength":256,
		"target":34962,
		"byteStride":32
	},
	{
		"buffer":5,
		"byteOffset":0,
		"byteLength":72,
		"target":34963
	},
	{
		"buffer":5,
		"byteOffset":72,
		"byteLength":512,
		"target":34962,
		"byteStride":32
	},
	{
		"buffer":6,
		"byteOffset":0,
		"byteLength":96,
		"target":34963
	},
	{
		"buffer":6,
		"byteOffset":96,
		"byteLength":768,
		"target":34962,
		"byteStride":32
	}],
	"buffers":[{
		"uri":"data:application/octet-stream;base64,",
		"byteLength":98384
	},
	{
		"uri":"data:application/octet-stream;base64,",
		"byteLength":1904
	},
	{
		"uri":"data:application/octet-stream;base64,",
		"byteLength":38468
	},
	{
		"uri":"data:application/octet-stream;base64,",
		"byteLength":216
	},
	{
		"uri":"data:application/octet-stream;base64,",
		"byteLength":280
	},
	{
		"uri":"data:application/octet-stream;base64,",
		"byteLength":584
	},
	{
		"uri":"data:application/octet-stream;base64,",
		"byteLength":864
	}]
}