# WaveFront *.obj file (generated by Cinema 4D)

mtllib ./auclairedelune.mtl

v 18.798042 17.766198 293.187362
v 0.138633 17.766198 293.187343
v -18.520776 17.766198 293.187324
v 18.798042 41.440997 293.194999
v 0.138633 41.440997 293.194980
v -18.520776 41.440997 293.194961
v 18.798042 65.115796 293.202636
v 0.138633 65.115796 293.202618
v -18.520776 65.115796 293.202599
# 9 vertices

vn 0.000001 0.000323 -1.000000
vn 0.000001 0.000323 -1.000000
vn 0.000001 0.000323 -1.000000
vn 0.000002 0.000322 -1.000000
vn 0.000001 0.000323 -1.000000
# 5 normals

vt 0.000000 0.000000 0.000000
vt 0.000000 0.500000 0.000000
vt 0.500000 0.500000 0.000000
vt 0.500000 0.000000 0.000000
vt 1.000000 0.500000 0.000000
vt 1.000000 0.000000 0.000000
vt 0.000000 1.000000 0.000000
vt 0.500000 1.000000 0.000000
vt 1.000000 1.000000 0.000000
# 9 texture coordinates

o Plane.2
usemtl auclairedelune
f 2/4/2 5/3/3 4/2/2 1/1/1
f 3/6/4 6/5/3 5/3/3 2/4/2
f 5/3/3 8/8/3 7/7/4 4/2/2
f 6/5/3 9/9/5 8/8/3 5/3/3

