# WaveFront *.obj file (generated by Cinema 4D)

mtllib ./les_amants.mtl

v 125.865182 23.440413 41.690998
v 98.036717 23.440413 41.690998
v 70.208252 23.440413 41.690998
v 125.865182 43.440413 41.690998
v 98.036717 43.440413 41.690998
v 70.208252 43.440413 41.690998
v 125.865182 63.440413 41.690998
v 98.036717 63.440413 41.690998
v 70.208252 63.440413 41.690998
# 9 vertices

vn 0.000000 0.000000 -1.000000
# 1 normal

vt 0.000000 0.000000 0.000000
vt 0.000000 0.500000 0.000000
vt 0.500000 0.500000 0.000000
vt 0.500000 0.000000 0.000000
vt 1.000000 0.500000 0.000000
vt 1.000000 0.000000 0.000000
vt 0.000000 1.000000 0.000000
vt 0.500000 1.000000 0.000000
vt 1.000000 1.000000 0.000000
# 9 texture coordinates

o les_amants
usemtl quadro 1
f 2/4/1 5/3/1 4/2/1 1/1/1
f 3/6/1 6/5/1 5/3/1 2/4/1
f 5/3/1 8/8/1 7/7/1 4/2/1
f 6/5/1 9/9/1 8/8/1 5/3/1

