# WaveFront *.obj file (generated by Cinema 4D)

mtllib ./melaviso.mtl

v -41.252862 19.488910 266.411277
v -41.252862 19.488910 249.951413
v -41.252862 19.488910 233.491550
v -41.252862 41.971070 266.411277
v -41.252862 41.971070 249.951413
v -41.252862 41.971070 233.491550
v -41.252862 64.453230 266.411277
v -41.252862 64.453230 249.951413
v -41.252862 64.453230 233.491550
# 9 vertices

vn 1.000000 0.000000 0.000000
# 1 normal

vt 0.000000 0.000000 0.000000
vt 0.000000 0.500000 0.000000
vt 0.500000 0.500000 0.000000
vt 0.500000 0.000000 0.000000
vt 1.000000 0.500000 0.000000
vt 1.000000 0.000000 0.000000
vt 0.000000 1.000000 0.000000
vt 0.500000 1.000000 0.000000
vt 1.000000 1.000000 0.000000
# 9 texture coordinates

o Plane.3
usemtl magrittemelaviso
f 2/4/1 5/3/1 4/2/1 1/1/1
f 3/6/1 6/5/1 5/3/1 2/4/1
f 5/3/1 8/8/1 7/7/1 4/2/1
f 6/5/1 9/9/1 8/8/1 5/3/1

