# WaveFront *.obj file (generated by Cinema 4D)

mtllib ./senzavolto.mtl

v -41.252862 20.165145 181.783513
v -41.252862 20.171071 163.411310
v -41.252862 20.176998 145.039106
v -41.252862 41.965143 181.790545
v -41.252862 41.971070 163.418342
v -41.252862 41.976997 145.046139
v -41.252862 63.765142 181.797578
v -41.252862 63.771069 163.425375
v -41.252862 63.776996 145.053171
# 9 vertices

vn 1.000000 0.000000 0.000000
# 1 normal

vt 0.000000 0.000000 0.000000
vt 0.000000 0.500000 0.000000
vt 0.500000 0.500000 0.000000
vt 0.500000 0.000000 0.000000
vt 1.000000 0.500000 0.000000
vt 1.000000 0.000000 0.000000
vt 0.000000 1.000000 0.000000
vt 0.500000 1.000000 0.000000
vt 1.000000 1.000000 0.000000
# 9 texture coordinates

o Plane.2
usemtl senza volto
f 2/4/1 5/3/1 4/2/1 1/1/1
f 3/6/1 6/5/1 5/3/1 2/4/1
f 5/3/1 8/8/1 7/7/1 4/2/1
f 6/5/1 9/9/1 8/8/1 5/3/1

