{
	"asset":{
		"version":"2.0",
		"generator":"Created using the official Cinema 4D glTF Exporter 1.000x284978"
	},
	"textures":[{
		"sampler":0,
		"source":0
	}],
	"scenes":[{
		"nodes":[0]
	}],
	"nodes":[{
		"name":"m_suit_01Mesh_m_suit_01",
		"scale":[9.969280242919922,
		9.969280242919922,
		9.969280242919922],
		"translation":[0.0,
		1.185788869857788,
		3.0579867362976076],
		"rotation":[-0.7071067690849304,
		0.0,
		0.0,
		-0.7071067690849304],
		"mesh":0
	}],
	"samplers":[{
		"magFilter":9729,
		"minFilter":9729,
		"wrapS":10497,
		"wrapT":10497
	}],
	"meshes":[{
		"name":"m_suit_01Mesh_m_suit_01",
		"primitives":[{
			"attributes":{
				"POSITION":1,
				"NORMAL":2,
				"TEXCOORD_0":3
			},
			"indices":0,
			"material":0
		}]
	}],
	"accessors":[{
		"bufferView":0,
		"type":"SCALAR",
		"componentType":5123,
		"count":27510,
		"byteOffset":0,
		"min":[0],
		"max":[5357]
	},
	{
		"bufferView":1,
		"type":"VEC3",
		"componentType":5126,
		"count":5358,
		"byteOffset":0,
		"min":[-0.26944220066070559,
		-0.1747719943523407,
		-1.4637863636016846],
		"max":[0.2689824104309082,
		0.09487435966730118,
		-0.07874603569507599]
	},
	{
		"bufferView":1,
		"type":"VEC3",
		"componentType":5126,
		"count":5358,
		"byteOffset":12,
		"min":[-0.9999802708625794,
		-0.9999154210090637,
		-0.9998778104782105],
		"max":[0.9999679327011108,
		0.9999681711196899,
		0.9999176263809204]
	},
	{
		"bufferView":1,
		"type":"VEC2",
		"componentType":5126,
		"count":5358,
		"byteOffset":24,
		"min":[0.006200000178068876,
		-0.9922999739646912],
		"max":[0.9968000054359436,
		-0.013100028038024903]
	}],
	"bufferViews":[{
		"buffer":0,
		"byteOffset":0,
		"target":34963,
		"byteLength":55020
	},
	{
		"buffer":0,
		"byteOffset":55020,
		"target":34962,
		"byteLength":171456,
		"byteStride":32
	}],
	"buffers":[{
		"uri":"data:application/octet-stream;base64,",
		"byteLength":226476
	}],
	"images":[{
		"uri":"data:image/jpeg;base64,"
	}],
	"materials":[{
		"pbrMetallicRoughness":{
			"baseColorTexture":{
				"index":0
			},
			"baseColorFactor":[1.0,
			1.0,
			1.0,
			1.0],
			"metallicFactor":0.0,
			"roughnessFactor":1.0
		},
		"emissiveFactor":[0.0,
		0.0,
		0.0],
		"alphaMode":"OPAQUE",
		"doubleSided":false,
		"name":"m_suit_01"
	}]
}