# WaveFront *.obj file (generated by Cinema 4D)

mtllib ./sfondo_pipa.mtl

v -83.691631 11.642440 -54.300937
v -83.691631 11.642440 -168.009939
v -83.691631 11.642440 -281.718941
v -83.691631 42.203723 -54.300937
v -83.691631 42.203723 -168.009939
v -83.691631 42.203723 -281.718941
v -83.691631 72.765005 -54.300937
v -83.691631 72.765005 -168.009939
v -83.691631 72.765005 -281.718941
# 9 vertices

vn 1.000000 0.000000 0.000000
# 1 normal

vt 0.000000 0.000000 0.000000
vt 0.000000 0.500000 0.000000
vt 0.500000 0.500000 0.000000
vt 0.500000 0.000000 0.000000
vt 1.000000 0.500000 0.000000
vt 1.000000 0.000000 0.000000
vt 0.000000 1.000000 0.000000
vt 0.500000 1.000000 0.000000
vt 1.000000 1.000000 0.000000
# 9 texture coordinates

o Plane.2
usemtl sfondo pipa
f 2/4/1 5/3/1 4/2/1 1/1/1
f 3/6/1 6/5/1 5/3/1 2/4/1
f 5/3/1 8/8/1 7/7/1 4/2/1
f 6/5/1 9/9/1 8/8/1 5/3/1

