{
	"asset":{
		"version":"2.0",
		"generator":"Created using the official Cinema 4D glTF Exporter 1.000x284978"
	},
	"scenes":[{
		"nodes":[0]
	}],
	"materials":[{
		"pbrMetallicRoughness":{
			"baseColorFactor":[0.8,
			0.8,
			0.8,
			0.05999999999999994],
			"metallicFactor":0.0,
			"roughnessFactor":0.5
		},
		"emissiveFactor":[0.0,
		0.0,
		0.0],
		"alphaMode":"BLEND",
		"doubleSided":false,
		"name":"vetro"
	}],
	"meshes":[{
		"name":"bottiglia",
		"primitives":[{
			"material":0,
			"attributes":{
				"POSITION":1,
				"NORMAL":2,
				"TEXCOORD_0":3
			},
			"indices":0
		}]
	}],
	"nodes":[{
		"name":"bottiglia",
		"translation":[93.72325134277344,
		41.14426040649414,
		-35.924217224121097],
		"rotation":[0.0,
		0.0,
		0.0,
		-1.0],
		"scale":[0.03999999910593033,
		0.03999999910593033,
		0.03999999910593033],
		"mesh":0
	}],
	"accessors":[{
		"bufferView":0,
		"type":"SCALAR",
		"componentType":5123,
		"count":38784,
		"byteOffset":0,
		"min":[0],
		"max":[7843]
	},
	{
		"bufferView":1,
		"type":"VEC3",
		"componentType":5126,
		"count":7844,
		"byteOffset":0,
		"min":[-61.076316833496097,
		-226.26904296875,
		-61.076316833496097],
		"max":[61.076316833496097,
		203.89398193359376,
		61.076316833496097]
	},
	{
		"bufferView":1,
		"type":"VEC3",
		"componentType":5126,
		"count":7844,
		"byteOffset":12,
		"min":[-0.9999924898147583,
		-0.9999410510063171,
		-0.9999924898147583],
		"max":[0.9999924898147583,
		0.99978107213974,
		0.9999924898147583]
	},
	{
		"bufferView":1,
		"type":"VEC2",
		"componentType":5126,
		"count":7844,
		"byteOffset":24,
		"min":[0.008191960863769055,
		0.00819195993244648],
		"max":[0.9196300506591797,
		0.9918080568313599]
	}],
	"bufferViews":[{
		"buffer":0,
		"byteOffset":0,
		"byteLength":77568,
		"target":34963
	},
	{
		"buffer":0,
		"byteOffset":77568,
		"byteLength":251008,
		"target":34962,
		"byteStride":32
	}],
	"buffers":[{
		"uri":"data:application/octet-stream;base64,",
		"byteLength":328576
	}]
}