{
    "asset" : {
        "generator" : "Khronos glTF Blender I/O v1.7.33",
        "version" : "2.0"
    },
    "scene" : 0,
    "scenes" : [
        {
            "name" : "Scene",
            "nodes" : [
                0
            ]
        }
    ],
    "nodes" : [
        {
            "mesh" : 0,
            "name" : "pipa",
            "rotation" : [
                0.09184455126523972,
                0.09851561486721039,
                -0.009131713770329952,
                0.9908460378646851
            ],
            "scale" : [
                0.3606039881706238,
                0.354449987411499,
                0.3546837270259857
            ],
            "translation" : [
                -0.49255022406578064,
                0.6889546513557434,
                0.2388061285018921
            ]
        }
    ],
    "materials" : [
        {
            "doubleSided" : true,
            "name" : "Materiale",
            "pbrMetallicRoughness" : {
                "baseColorTexture" : {
                    "index" : 0
                },
                "metallicFactor" : 0,
                "roughnessFactor" : 0.5
            }
        },
        {
            "doubleSided" : true,
            "emissiveFactor" : [
                0.054480284452438354,
                0.04970657452940941,
                0.04373503103852272
            ],
            "name" : "Materiale.001",
            "pbrMetallicRoughness" : {}
        }
    ],
    "meshes" : [
        {
            "name" : "Cerchio",
            "primitives" : [
                {
                    "attributes" : {
                        "POSITION" : 0,
                        "NORMAL" : 1,
                        "TEXCOORD_0" : 2,
                        "TEXCOORD_1" : 3
                    },
                    "indices" : 4,
                    "material" : 0
                },
                {
                    "attributes" : {
                        "POSITION" : 5,
                        "NORMAL" : 6,
                        "TEXCOORD_0" : 7,
                        "TEXCOORD_1" : 8
                    },
                    "indices" : 9,
                    "material" : 1
                }
            ]
        }
    ],
    "textures" : [
        {
            "sampler" : 0,
            "source" : 0
        }
    ],
    "images" : [
        {
            "bufferView" : 5,
            "mimeType" : "image/png",
            "name" : "Senza Titolo"
        }
    ],
    "accessors" : [
        {
            "bufferView" : 0,
            "componentType" : 5126,
            "count" : 4520,
            "max" : [
                6.427985668182373,
                -3.160637973564917e-08,
                1.1152195930480957
            ],
            "min" : [
                -1.1155952215194702,
                -3.316244125366211,
                -1.1152197122573853
            ],
            "type" : "VEC3"
        },
        {
            "bufferView" : 1,
            "componentType" : 5126,
            "count" : 4520,
            "type" : "VEC3"
        },
        {
            "bufferView" : 2,
            "componentType" : 5126,
            "count" : 4520,
            "type" : "VEC2"
        },
        {
            "bufferView" : 3,
            "componentType" : 5126,
            "count" : 4520,
            "type" : "VEC2"
        },
        {
            "bufferView" : 4,
            "componentType" : 5123,
            "count" : 21120,
            "type" : "SCALAR"
        },
        {
            "bufferView" : 6,
            "componentType" : 5126,
            "count" : 3400,
            "max" : [
                5.907321929931641,
                -3.9506545066833496,
                1.3393847942352295
            ],
            "min" : [
                -0.597556471824646,
                -4.687160015106201,
                -0.023076921701431274
            ],
            "type" : "VEC3"
        },
        {
            "bufferView" : 7,
            "componentType" : 5126,
            "count" : 3400,
            "type" : "VEC3"
        },
        {
            "bufferView" : 8,
            "componentType" : 5126,
            "count" : 3400,
            "type" : "VEC2"
        },
        {
            "bufferView" : 9,
            "componentType" : 5126,
            "count" : 3400,
            "type" : "VEC2"
        },
        {
            "bufferView" : 10,
            "componentType" : 5123,
            "count" : 6666,
            "type" : "SCALAR"
        }
    ],
    "bufferViews" : [
        {
            "buffer" : 0,
            "byteLength" : 54240,
            "byteOffset" : 0
        },
        {
            "buffer" : 0,
            "byteLength" : 54240,
            "byteOffset" : 54240
        },
        {
            "buffer" : 0,
            "byteLength" : 36160,
            "byteOffset" : 108480
        },
        {
            "buffer" : 0,
            "byteLength" : 36160,
            "byteOffset" : 144640
        },
        {
            "buffer" : 0,
            "byteLength" : 42240,
            "byteOffset" : 180800
        },
        {
            "buffer" : 0,
            "byteLength" : 800500,
            "byteOffset" : 223040
        },
        {
            "buffer" : 0,
            "byteLength" : 40800,
            "byteOffset" : 1023540
        },
        {
            "buffer" : 0,
            "byteLength" : 40800,
            "byteOffset" : 1064340
        },
        {
            "buffer" : 0,
            "byteLength" : 27200,
            "byteOffset" : 1105140
        },
        {
            "buffer" : 0,
            "byteLength" : 27200,
            "byteOffset" : 1132340
        },
        {
            "buffer" : 0,
            "byteLength" : 13332,
            "byteOffset" : 1159540
        }
    ],
    "samplers" : [
        {
            "magFilter" : 9729,
            "minFilter" : 9987
        }
    ],
    "buffers" : [
        {
            "byteLength" : 1172872,
            "uri" : "data:application/octet-stream;base64,"
        }
    ]
}
