{
	"asset":{
		"version":"2.0",
		"generator":"Created using the official Cinema 4D glTF Exporter 1.000x284978"
	},
	"scenes":[{
		"nodes":[0,
		1,
		2,
		3]
	}],
	"nodes":[{
		"name":"cannuccia dritta",
		"rotation":[-0.04631223529577255,
		-0.09425855427980423,
		0.06697174161672592,
		-0.9922122955322266],
		"translation":[-4.695545673370361,
		90.47937774658203,
		-3.1858956813812258],
		"mesh":0,
		"scale":[1.0,
		1.0,
		1.0]
	},
	{
		"name":"bottiglia",
		"mesh":1
	},
	{
		"name":"liquido",
		"rotation":[0.0,
		0.0,
		0.0,
		-1.0],
		"translation":[0.0,
		0.0,
		0.0],
		"mesh":2,
		"scale":[1.0,
		1.0,
		0.8799999952316284]
	},
	{
		"name":"etichetta",
		"rotation":[0.0,
		0.0,
		0.0,
		-1.0],
		"translation":[0.0,
		0.0,
		0.0],
		"mesh":3,
		"scale":[1.0178616046905518,
		1.0,
		1.0067548751831055]
	}],
	"materials":[{
		"pbrMetallicRoughness":{
			"baseColorFactor":[1.0,
			1.0,
			1.0,
			0.19999999999999996],
			"metallicFactor":0.3,
			"roughnessFactor":0.0
		},
		"emissiveFactor":[0.0,
		0.0,
		0.0],
		"name":"vetro",
		"alphaMode":"BLEND",
		"doubleSided":false
	},
	{
		"pbrMetallicRoughness":{
			"baseColorFactor":[0.15,
			0.0789500000000003,
			0.0030000000000000028,
			0.7],
			"metallicFactor":0.0,
			"roughnessFactor":0.5
		},
		"emissiveFactor":[0.0,
		0.0,
		0.0],
		"name":"liquido",
		"alphaMode":"BLEND",
		"doubleSided":false
	},
	{
		"pbrMetallicRoughness":{
			"baseColorFactor":[0.8,
			0.8,
			0.8,
			1.0],
			"metallicFactor":0.0,
			"roughnessFactor":0.5
		},
		"emissiveFactor":[0.0,
		0.0,
		0.0],
		"name":"etichetta",
		"alphaMode":"OPAQUE",
		"doubleSided":false
	}],
	"meshes":[{
		"name":"cannuccia dritta",
		"primitives":[{
			"attributes":{
				"POSITION":1,
				"NORMAL":2,
				"TEXCOORD_0":3
			},
			"indices":0
		}]
	},
	{
		"name":"bottiglia",
		"primitives":[{
			"attributes":{
				"POSITION":5,
				"NORMAL":6,
				"TEXCOORD_0":7
			},
			"indices":4,
			"material":0
		}]
	},
	{
		"name":"liquido",
		"primitives":[{
			"attributes":{
				"POSITION":9,
				"NORMAL":10,
				"TEXCOORD_0":11
			},
			"indices":8,
			"material":1
		}]
	},
	{
		"name":"etichetta",
		"primitives":[{
			"attributes":{
				"POSITION":13,
				"NORMAL":14,
				"TEXCOORD_0":15
			},
			"indices":12,
			"material":2
		}]
	}],
	"accessors":[{
		"bufferView":0,
		"type":"SCALAR",
		"componentType":5123,
		"count":1152,
		"byteOffset":0,
		"min":[0],
		"max":[387]
	},
	{
		"bufferView":1,
		"type":"VEC3",
		"componentType":5126,
		"count":388,
		"byteOffset":0,
		"min":[-4.0,
		-200.0,
		-4.0],
		"max":[4.0,
		200.0,
		4.0]
	},
	{
		"bufferView":1,
		"type":"VEC3",
		"componentType":5126,
		"count":388,
		"byteOffset":12,
		"min":[-0.9997614622116089,
		-1.0,
		-0.9997614622116089],
		"max":[0.9997614622116089,
		1.0,
		0.9997614622116089]
	},
	{
		"bufferView":1,
		"type":"VEC2",
		"componentType":5126,
		"count":388,
		"byteOffset":24,
		"min":[0.0,
		0.0],
		"max":[1.0,
		1.0]
	},
	{
		"bufferView":2,
		"type":"SCALAR",
		"componentType":5123,
		"count":38784,
		"byteOffset":0,
		"min":[0],
		"max":[6993]
	},
	{
		"bufferView":3,
		"type":"VEC3",
		"componentType":5126,
		"count":6994,
		"byteOffset":0,
		"min":[-61.076316833496097,
		-226.26904296875,
		-61.076316833496097],
		"max":[61.076316833496097,
		203.89398193359376,
		61.076316833496097]
	},
	{
		"bufferView":3,
		"type":"VEC3",
		"componentType":5126,
		"count":6994,
		"byteOffset":12,
		"min":[-0.9999924898147583,
		-0.99978107213974,
		-0.9999924898147583],
		"max":[0.9999924898147583,
		0.9999404549598694,
		0.9999924898147583]
	},
	{
		"bufferView":3,
		"type":"VEC2",
		"componentType":5126,
		"count":6994,
		"byteOffset":24,
		"min":[0.0,
		0.0],
		"max":[1.0,
		1.0]
	},
	{
		"bufferView":4,
		"type":"SCALAR",
		"componentType":5123,
		"count":9498,
		"byteOffset":0,
		"min":[0],
		"max":[1714]
	},
	{
		"bufferView":5,
		"type":"VEC3",
		"componentType":5126,
		"count":1715,
		"byteOffset":0,
		"min":[-57.98657989501953,
		-222.97503662109376,
		-57.98657989501953],
		"max":[57.98657989501953,
		103.97435760498047,
		57.98657989501953]
	},
	{
		"bufferView":5,
		"type":"VEC3",
		"componentType":5126,
		"count":1715,
		"byteOffset":12,
		"min":[-0.9998432993888855,
		-1.0,
		-0.9998432993888855],
		"max":[0.9998432993888855,
		0.9995723366737366,
		0.9998432993888855]
	},
	{
		"bufferView":5,
		"type":"VEC2",
		"componentType":5126,
		"count":1715,
		"byteOffset":24,
		"min":[0.0,
		0.0],
		"max":[0.3849932849407196,
		1.0]
	},
	{
		"bufferView":6,
		"type":"SCALAR",
		"componentType":5123,
		"count":2298,
		"byteOffset":0,
		"min":[0],
		"max":[581]
	},
	{
		"bufferView":7,
		"type":"VEC3",
		"componentType":5126,
		"count":582,
		"byteOffset":0,
		"min":[-61.076316833496097,
		-39.16984176635742,
		-61.076316833496097],
		"max":[61.076316833496097,
		39.49893569946289,
		61.076316833496097]
	},
	{
		"bufferView":7,
		"type":"VEC3",
		"componentType":5126,
		"count":582,
		"byteOffset":12,
		"min":[-0.9955965280532837,
		-0.9972192645072937,
		-0.9955965280532837],
		"max":[0.9955965280532837,
		0.9972193241119385,
		0.9955965280532837]
	},
	{
		"bufferView":7,
		"type":"VEC2",
		"componentType":5126,
		"count":582,
		"byteOffset":24,
		"min":[-0.16967399418354035,
		-1.5770533084869385],
		"max":[0.782660186290741,
		0.6422785520553589]
	}],
	"bufferViews":[{
		"buffer":0,
		"byteOffset":0,
		"byteLength":2304,
		"target":34963
	},
	{
		"buffer":0,
		"byteOffset":2304,
		"byteLength":12416,
		"target":34962,
		"byteStride":32
	},
	{
		"buffer":1,
		"byteOffset":0,
		"byteLength":77568,
		"target":34963
	},
	{
		"buffer":1,
		"byteOffset":77568,
		"byteLength":223808,
		"target":34962,
		"byteStride":32
	},
	{
		"buffer":2,
		"byteOffset":0,
		"byteLength":18996,
		"target":34963
	},
	{
		"buffer":2,
		"byteOffset":18996,
		"byteLength":54880,
		"target":34962,
		"byteStride":32
	},
	{
		"buffer":3,
		"byteOffset":0,
		"byteLength":4596,
		"target":34963
	},
	{
		"buffer":3,
		"byteOffset":4596,
		"byteLength":18624,
		"target":34962,
		"byteStride":32
	}],
	"buffers":[{
		"uri":"data:application/octet-stream;base64,",
		"byteLength":14720
	},
	{
		"uri":"data:application/octet-stream;base64,",
		"byteLength":301376
	},
	{
		"uri":"data:application/octet-stream;base64,",
		"byteLength":73876
	},
	{
		"uri":"data:application/octet-stream;base64,",
		"byteLength":23220
	}]
}