{
	"asset":{
		"version":"2.0",
		"generator":"Created using the official Cinema 4D glTF Exporter 1.000x284978"
	},
	"scenes":[{
		"nodes":[0]
	}],
	"nodes":[{
		"name":"decanter con vino",
		"translation":[-281.1270446777344,
		66.45591735839844,
		-74.17149353027344],
		"rotation":[0.0,
		0.0,
		0.0,
		-1.0],
		"scale":[0.07999999821186066,
		0.07999999821186066,
		0.07999999821186066],
		"children":[1,
		2]
	},
	{
		"name":"decanter con vino-Mat.2",
		"mesh":0
	},
	{
		"name":"decanter con vino-vino",
		"mesh":1
	}],
	"meshes":[{
		"name":"decanter con vino-Mat.2",
		"primitives":[{
			"attributes":{
				"POSITION":1,
				"NORMAL":2,
				"TEXCOORD_0":3
			},
			"material":0,
			"indices":0
		}]
	},
	{
		"name":"decanter con vino-vino",
		"primitives":[{
			"attributes":{
				"POSITION":5,
				"NORMAL":6,
				"TEXCOORD_0":7
			},
			"material":1,
			"indices":4
		}]
	}],
	"accessors":[{
		"bufferView":0,
		"type":"SCALAR",
		"componentType":5123,
		"count":7488,
		"byteOffset":0,
		"min":[0],
		"max":[1691]
	},
	{
		"bufferView":1,
		"type":"VEC3",
		"componentType":5126,
		"count":1692,
		"byteOffset":0,
		"min":[-275.9477844238281,
		71.5599365234375,
		-275.9477844238281],
		"max":[275.9477844238281,
		697.262939453125,
		275.9477844238281]
	},
	{
		"bufferView":1,
		"type":"VEC3",
		"componentType":5126,
		"count":1692,
		"byteOffset":12,
		"min":[-0.9993125200271606,
		-0.9995625615119934,
		-0.9993125200271606],
		"max":[0.9993125200271606,
		0.9636250734329224,
		0.9993125200271606]
	},
	{
		"bufferView":1,
		"type":"VEC2",
		"componentType":5126,
		"count":1692,
		"byteOffset":24,
		"min":[0.0043844180181622509,
		0.0043844180181622509],
		"max":[0.9550343751907349,
		0.939306378364563]
	},
	{
		"bufferView":2,
		"type":"SCALAR",
		"componentType":5123,
		"count":1434,
		"byteOffset":0,
		"min":[0],
		"max":[363]
	},
	{
		"bufferView":3,
		"type":"VEC3",
		"componentType":5126,
		"count":364,
		"byteOffset":0,
		"min":[-268.9459533691406,
		74.99314880371094,
		-268.9459533691406],
		"max":[268.9459533691406,
		216.7140350341797,
		268.9459533691406]
	},
	{
		"bufferView":3,
		"type":"VEC3",
		"componentType":5126,
		"count":364,
		"byteOffset":12,
		"min":[-1.0,
		-0.9986875653266907,
		-1.0],
		"max":[1.0,
		1.0,
		1.0]
	},
	{
		"bufferView":3,
		"type":"VEC2",
		"componentType":5126,
		"count":364,
		"byteOffset":24,
		"min":[0.0043844180181622509,
		0.0043844180181622509],
		"max":[0.9550343751907349,
		0.9956156015396118]
	}],
	"bufferViews":[{
		"buffer":0,
		"byteOffset":0,
		"byteLength":14976,
		"target":34963
	},
	{
		"buffer":0,
		"byteOffset":14976,
		"byteLength":54144,
		"target":34962,
		"byteStride":32
	},
	{
		"buffer":1,
		"byteOffset":0,
		"byteLength":2868,
		"target":34963
	},
	{
		"buffer":1,
		"byteOffset":2868,
		"byteLength":11648,
		"target":34962,
		"byteStride":32
	}],
	"buffers":[{
		"uri":"data:application/octet-stream;base64,",
		"byteLength":69120
	},
	{
		"uri":"data:application/octet-stream;base64,",
		"byteLength":14516
	}],
	"materials":[{
		"pbrMetallicRoughness":{
			"baseColorFactor":[0.8,
			0.8,
			0.8,
			0.12],
			"metallicFactor":0.0,
			"roughnessFactor":0.5
		},
		"emissiveFactor":[0.0,
		0.0,
		0.0],
		"alphaMode":"BLEND",
		"doubleSided":false,
		"name":"Mat.2"
	},
	{
		"pbrMetallicRoughness":{
			"baseColorFactor":[0.41000000000000005,
			0.40672,
			0.21320000000000004,
			1.0],
			"metallicFactor":0.0,
			"roughnessFactor":0.5
		},
		"emissiveFactor":[0.0,
		0.0,
		0.0],
		"alphaMode":"OPAQUE",
		"doubleSided":false,
		"name":"vino"
	}]
}