{
	"asset":{
		"version":"2.0",
		"generator":"Created using the official Cinema 4D glTF Exporter 1.000x284978"
	},
	"scenes":[{
		"nodes":[0]
	}],
	"nodes":[{
		"rotation":[0.0,
		0.0,
		0.0,
		-1.0],
		"name":"Piano.020_Piano.029",
		"translation":[0.0,
		0.0,
		0.0],
		"scale":[21.0,
		21.0,
		21.0],
		"mesh":0
	}],
	"materials":[{
		"pbrMetallicRoughness":{
			"baseColorFactor":[0.7194244604316546,
			1.0,
			0.8737410071942445,
			1.0],
			"metallicFactor":0.0,
			"roughnessFactor":0.5
		},
		"emissiveFactor":[0.0,
		0.0,
		0.0],
		"alphaMode":"OPAQUE",
		"doubleSided":false,
		"name":"Piano.020_Piano.029"
	}],
	"meshes":[{
		"name":"Piano.020_Piano.029",
		"primitives":[{
			"attributes":{
				"POSITION":1,
				"NORMAL":2,
				"TEXCOORD_0":3
			},
			"indices":0,
			"material":0
		}]
	}],
	"accessors":[{
		"bufferView":0,
		"type":"SCALAR",
		"componentType":5123,
		"count":1497,
		"byteOffset":0,
		"min":[0],
		"max":[699]
	},
	{
		"bufferView":1,
		"type":"VEC3",
		"componentType":5126,
		"count":700,
		"byteOffset":0,
		"min":[-9.498786926269532,
		0.013310999609529972,
		-14.0],
		"max":[9.498786926269532,
		5.0133137702941898,
		14.002809524536133]
	},
	{
		"bufferView":1,
		"type":"VEC3",
		"componentType":5126,
		"count":700,
		"byteOffset":12,
		"min":[-1.0,
		-1.0,
		-0.9045000672340393],
		"max":[0.9045000672340393,
		1.0,
		1.0]
	},
	{
		"bufferView":1,
		"type":"VEC2",
		"componentType":5126,
		"count":700,
		"byteOffset":24,
		"min":[0.21153847873210908,
		0.2099689543247223],
		"max":[24.788461685180665,
		24.79003143310547]
	}],
	"bufferViews":[{
		"buffer":0,
		"byteOffset":0,
		"byteLength":2994,
		"target":34963
	},
	{
		"buffer":0,
		"byteOffset":2996,
		"byteLength":22400,
		"byteStride":32,
		"target":34962
	}],
	"buffers":[{
		"uri":"data:application/octet-stream;base64,",
		"byteLength":25396
	}]
}