# WaveFront *.obj file (generated by Cinema 4D)

mtllib ./infomuseo.mtl

v -27.184723 30.949277 -291.926846
v 1.375820 30.949277 -291.926846
v 29.936362 30.949277 -291.926846
v -27.184723 46.917154 -291.926846
v 1.375820 46.917154 -291.926846
v 29.936362 46.917154 -291.926846
v -27.184723 62.885032 -291.926846
v 1.375820 62.885032 -291.926846
v 29.936362 62.885032 -291.926846
# 9 vertices

vn 0.000000 0.000000 1.000000
# 1 normal

vt 0.000000 0.000000 0.000000
vt 0.000000 0.500000 0.000000
vt 0.500000 0.500000 0.000000
vt 0.500000 0.000000 0.000000
vt 1.000000 0.500000 0.000000
vt 1.000000 0.000000 0.000000
vt 0.000000 1.000000 0.000000
vt 0.500000 1.000000 0.000000
vt 1.000000 1.000000 0.000000
# 9 texture coordinates

o Plane.1
usemtl istruzioni
f 2/4/1 5/3/1 4/2/1 1/1/1
f 3/6/1 6/5/1 5/3/1 2/4/1
f 5/3/1 8/8/1 7/7/1 4/2/1
f 6/5/1 9/9/1 8/8/1 5/3/1

