# WaveFront *.obj file (generated by Cinema 4D)

mtllib ./interattivovilla.mtl

v 126.264974 21.993316 41.472221
v 95.871352 21.993316 41.472190
v 65.477729 21.993316 41.472159
v 126.264974 40.616897 41.478229
v 95.871352 40.616897 41.478198
v 65.477729 40.616897 41.478167
v 126.264974 59.240478 41.484236
v 95.871352 59.240478 41.484206
v 65.477729 59.240478 41.484175
# 9 vertices

vn 0.000001 0.000323 -1.000000
# 1 normal

vt 0.000000 0.000000 0.000000
vt 0.000000 0.500000 0.000000
vt 0.500000 0.500000 0.000000
vt 0.500000 0.000000 0.000000
vt 1.000000 0.500000 0.000000
vt 1.000000 0.000000 0.000000
vt 0.000000 1.000000 0.000000
vt 0.500000 1.000000 0.000000
vt 1.000000 1.000000 0.000000
# 9 texture coordinates

o Plane.2
usemtl auclairedelune
f 2/4/1 5/3/1 4/2/1 1/1/1
f 3/6/1 6/5/1 5/3/1 2/4/1
f 5/3/1 8/8/1 7/7/1 4/2/1
f 6/5/1 9/9/1 8/8/1 5/3/1

