{
	"asset":{
		"version":"2.0",
		"generator":"Created using the official Cinema 4D glTF Exporter 1.000x284978"
	},
	"scenes":[{
		"nodes":[0,
		1,
		2,
		5,
		8,
		11,
		12,
		13]
	}],
	"materials":[{
		"pbrMetallicRoughness":{
			"baseColorFactor":[0.65,
			0.12999999999999999,
			0.0,
			1.0],
			"metallicFactor":0.0,
			"roughnessFactor":0.5
		},
		"emissiveFactor":[0.0,
		0.0,
		0.0],
		"alphaMode":"OPAQUE",
		"doubleSided":false,
		"name":"buccia pomodoro"
	},
	{
		"pbrMetallicRoughness":{
			"baseColorFactor":[0.65,
			0.12999999999999999,
			0.0,
			1.0],
			"metallicFactor":0.0,
			"roughnessFactor":0.5
		},
		"emissiveFactor":[0.0,
		0.0,
		0.0],
		"alphaMode":"OPAQUE",
		"doubleSided":false,
		"name":"interno pomodoro"
	},
	{
		"pbrMetallicRoughness":{
			"baseColorFactor":[0.33,
			0.18150000000000003,
			0.0,
			1.0],
			"metallicFactor":0.0,
			"roughnessFactor":0.5
		},
		"emissiveFactor":[0.0,
		0.0,
		0.0],
		"alphaMode":"OPAQUE",
		"doubleSided":false,
		"name":"carne"
	},
	{
		"pbrMetallicRoughness":{
			"baseColorFactor":[0.22543499999999995,
			0.5700000000000001,
			0.03989999999999998,
			1.0],
			"metallicFactor":0.0,
			"roughnessFactor":0.5
		},
		"emissiveFactor":[0.0,
		0.0,
		0.0],
		"alphaMode":"OPAQUE",
		"doubleSided":false,
		"name":"lattuga"
	},
	{
		"pbrMetallicRoughness":{
			"baseColorFactor":[0.8,
			0.8,
			0.8,
			1.0],
			"metallicFactor":0.0,
			"roughnessFactor":0.5
		},
		"emissiveFactor":[0.0,
		0.0,
		0.0],
		"alphaMode":"OPAQUE",
		"doubleSided":false,
		"name":"pane"
	}],
	"nodes":[{
		"name":"Tube",
		"translation":[6.018819332122803,
		99.97289276123047,
		-39.69052505493164],
		"rotation":[0.0,
		0.0,
		0.0,
		-1.0],
		"mesh":0,
		"scale":[1.0,
		1.0,
		1.0]
	},
	{
		"name":"Cylinder",
		"translation":[9.14968490600586,
		99.97289276123047,
		-39.69052505493164],
		"rotation":[0.0,
		0.0,
		0.0,
		-1.0],
		"mesh":1,
		"scale":[1.0,
		1.0,
		1.0]
	},
	{
		"name":"pomodoro.2",
		"translation":[-59.575279235839847,
		95.89741516113281,
		26.598981857299806],
		"rotation":[0.0,
		0.0,
		0.0,
		-1.0],
		"scale":[1.0,
		1.0,
		1.0],
		"children":[3,
		4]
	},
	{
		"name":"Tube",
		"mesh":2
	},
	{
		"name":"Cylinder",
		"mesh":3
	},
	{
		"name":"pomodoro.1",
		"translation":[-33.05809020996094,
		102.39796447753906,
		-35.33119583129883],
		"rotation":[0.0,
		0.0,
		0.0,
		-1.0],
		"scale":[1.0,
		1.0,
		1.0],
		"children":[6,
		7]
	},
	{
		"name":"Tube",
		"translation":[-28.474315643310548,
		0.0,
		0.0],
		"rotation":[0.0,
		0.0,
		0.0,
		-1.0],
		"mesh":4,
		"scale":[1.0,
		1.0,
		1.0]
	},
	{
		"name":"Cylinder",
		"translation":[-34.381439208984378,
		0.0,
		0.0],
		"rotation":[0.0,
		0.0,
		0.0,
		-1.0],
		"mesh":5,
		"scale":[1.0,
		1.0,
		1.0]
	},
	{
		"name":"pomodoro",
		"translation":[26.677148818969728,
		107.69165802001953,
		63.61600112915039],
		"rotation":[0.0,
		0.0,
		0.0,
		-1.0],
		"scale":[1.0,
		1.0,
		1.0],
		"children":[9,
		10]
	},
	{
		"name":"Tube",
		"translation":[-3.1308648586273195,
		-7.718766689300537,
		-31.83871841430664],
		"rotation":[0.0,
		0.0,
		0.0,
		-1.0],
		"mesh":6,
		"scale":[1.0,
		1.0,
		1.0]
	},
	{
		"name":"Cylinder",
		"translation":[0.0,
		-7.718766689300537,
		-31.83871841430664],
		"rotation":[0.0,
		0.0,
		0.0,
		-1.0],
		"mesh":7,
		"scale":[1.0,
		1.0,
		1.0]
	},
	{
		"name":"carne",
		"translation":[-28.419586181640626,
		66.0347900390625,
		-2.267542839050293],
		"rotation":[0.0,
		0.0,
		0.0,
		-1.0],
		"mesh":8,
		"scale":[0.8389959335327148,
		0.940778911113739,
		0.8259428143501282]
	},
	{
		"name":"lattuga",
		"translation":[-47.813194274902347,
		52.77165603637695,
		16.741416931152345],
		"rotation":[0.0,
		0.0,
		7.450580596923828e-9,
		-1.0],
		"mesh":9,
		"scale":[0.9489185810089111,
		0.9489185810089111,
		0.9885031580924988]
	},
	{
		"name":"pane",
		"translation":[1.118607997894287,
		-29.34587860107422,
		2.4716789722442629],
		"rotation":[0.0,
		0.0,
		0.0,
		-1.0],
		"scale":[1.0,
		1.0,
		1.0],
		"children":[14,
		15]
	},
	{
		"name":"FETTA giù",
		"translation":[-27.556663513183595,
		69.43059539794922,
		0.047815755009651187],
		"rotation":[0.0,
		0.0,
		0.0,
		-1.0],
		"mesh":10,
		"scale":[0.9924008250236511,
		0.33971765637397768,
		1.0041637420654297]
	},
	{
		"name":"FETTA SUP",
		"translation":[-28.082956314086915,
		154.87107849121095,
		-3.4865055084228517],
		"rotation":[0.0070605529472231869,
		0.07650243490934372,
		-0.003287680447101593,
		-0.9970389604568481],
		"mesh":11,
		"scale":[0.9635346531867981,
		0.47351306676864626,
		1.0160846710205079]
	}],
	"meshes":[{
		"name":"Tube",
		"primitives":[{
			"attributes":{
				"POSITION":1,
				"NORMAL":2,
				"TEXCOORD_0":3
			},
			"indices":0,
			"material":0
		}]
	},
	{
		"name":"Cylinder",
		"primitives":[{
			"attributes":{
				"POSITION":5,
				"NORMAL":6,
				"TEXCOORD_0":7
			},
			"indices":4,
			"material":1
		}]
	},
	{
		"name":"Tube",
		"primitives":[{
			"attributes":{
				"POSITION":9,
				"NORMAL":10,
				"TEXCOORD_0":11
			},
			"indices":8,
			"material":0
		}]
	},
	{
		"name":"Cylinder",
		"primitives":[{
			"attributes":{
				"POSITION":13,
				"NORMAL":14,
				"TEXCOORD_0":15
			},
			"indices":12,
			"material":1
		}]
	},
	{
		"name":"Tube",
		"primitives":[{
			"attributes":{
				"POSITION":17,
				"NORMAL":18,
				"TEXCOORD_0":19
			},
			"indices":16,
			"material":0
		}]
	},
	{
		"name":"Cylinder",
		"primitives":[{
			"attributes":{
				"POSITION":21,
				"NORMAL":22,
				"TEXCOORD_0":23
			},
			"indices":20,
			"material":1
		}]
	},
	{
		"name":"Tube",
		"primitives":[{
			"attributes":{
				"POSITION":25,
				"NORMAL":26,
				"TEXCOORD_0":27
			},
			"indices":24,
			"material":0
		}]
	},
	{
		"name":"Cylinder",
		"primitives":[{
			"attributes":{
				"POSITION":29,
				"NORMAL":30,
				"TEXCOORD_0":31
			},
			"indices":28,
			"material":1
		}]
	},
	{
		"name":"carne",
		"primitives":[{
			"attributes":{
				"POSITION":33,
				"NORMAL":34,
				"TEXCOORD_0":35
			},
			"indices":32,
			"material":2
		}]
	},
	{
		"name":"lattuga",
		"primitives":[{
			"attributes":{
				"POSITION":37,
				"NORMAL":38,
				"TEXCOORD_0":39
			},
			"indices":36,
			"material":3
		}]
	},
	{
		"name":"FETTA giù",
		"primitives":[{
			"attributes":{
				"POSITION":41,
				"NORMAL":42,
				"TEXCOORD_0":43
			},
			"indices":40,
			"material":4
		}]
	},
	{
		"name":"FETTA SUP",
		"primitives":[{
			"attributes":{
				"POSITION":45,
				"NORMAL":46,
				"TEXCOORD_0":47
			},
			"indices":44,
			"material":4
		}]
	}],
	"accessors":[{
		"bufferView":0,
		"type":"SCALAR",
		"componentType":5123,
		"count":2880,
		"byteOffset":0,
		"min":[0],
		"max":[526]
	},
	{
		"bufferView":1,
		"type":"VEC3",
		"componentType":5126,
		"count":527,
		"byteOffset":0,
		"min":[-36.0,
		-5.0,
		-36.0],
		"max":[36.0,
		5.0,
		36.0]
	},
	{
		"bufferView":1,
		"type":"VEC3",
		"componentType":5126,
		"count":527,
		"byteOffset":12,
		"min":[-1.0,
		-0.9914191961288452,
		-1.0],
		"max":[1.0,
		0.9914191961288452,
		1.0]
	},
	{
		"bufferView":1,
		"type":"VEC2",
		"componentType":5126,
		"count":527,
		"byteOffset":24,
		"min":[0.0,
		0.0],
		"max":[1.0,
		1.0]
	},
	{
		"bufferView":2,
		"type":"SCALAR",
		"componentType":5123,
		"count":480,
		"byteOffset":0,
		"min":[0],
		"max":[118]
	},
	{
		"bufferView":3,
		"type":"VEC3",
		"componentType":5126,
		"count":119,
		"byteOffset":0,
		"min":[-26.0,
		-4.0,
		-26.0],
		"max":[26.0,
		4.0,
		26.0]
	},
	{
		"bufferView":3,
		"type":"VEC3",
		"componentType":5126,
		"count":119,
		"byteOffset":12,
		"min":[-1.0,
		-1.0,
		-1.0],
		"max":[1.0,
		1.0,
		1.0]
	},
	{
		"bufferView":3,
		"type":"VEC2",
		"componentType":5126,
		"count":119,
		"byteOffset":24,
		"min":[0.0,
		0.0],
		"max":[1.0,
		1.0]
	},
	{
		"bufferView":4,
		"type":"SCALAR",
		"componentType":5123,
		"count":2880,
		"byteOffset":0,
		"min":[0],
		"max":[526]
	},
	{
		"bufferView":5,
		"type":"VEC3",
		"componentType":5126,
		"count":527,
		"byteOffset":0,
		"min":[-36.0,
		-5.0,
		-36.0],
		"max":[36.0,
		5.0,
		36.0]
	},
	{
		"bufferView":5,
		"type":"VEC3",
		"componentType":5126,
		"count":527,
		"byteOffset":12,
		"min":[-1.0,
		-0.9914191961288452,
		-1.0],
		"max":[1.0,
		0.9914191961288452,
		1.0]
	},
	{
		"bufferView":5,
		"type":"VEC2",
		"componentType":5126,
		"count":527,
		"byteOffset":24,
		"min":[0.0,
		0.0],
		"max":[1.0,
		1.0]
	},
	{
		"bufferView":6,
		"type":"SCALAR",
		"componentType":5123,
		"count":480,
		"byteOffset":0,
		"min":[0],
		"max":[118]
	},
	{
		"bufferView":7,
		"type":"VEC3",
		"componentType":5126,
		"count":119,
		"byteOffset":0,
		"min":[-26.0,
		-4.0,
		-26.0],
		"max":[26.0,
		4.0,
		26.0]
	},
	{
		"bufferView":7,
		"type":"VEC3",
		"componentType":5126,
		"count":119,
		"byteOffset":12,
		"min":[-1.0,
		-1.0,
		-1.0],
		"max":[1.0,
		1.0,
		1.0]
	},
	{
		"bufferView":7,
		"type":"VEC2",
		"componentType":5126,
		"count":119,
		"byteOffset":24,
		"min":[0.0,
		0.0],
		"max":[1.0,
		1.0]
	},
	{
		"bufferView":8,
		"type":"SCALAR",
		"componentType":5123,
		"count":2880,
		"byteOffset":0,
		"min":[0],
		"max":[526]
	},
	{
		"bufferView":9,
		"type":"VEC3",
		"componentType":5126,
		"count":527,
		"byteOffset":0,
		"min":[-36.0,
		-5.0,
		-36.0],
		"max":[36.0,
		5.0,
		36.0]
	},
	{
		"bufferView":9,
		"type":"VEC3",
		"componentType":5126,
		"count":527,
		"byteOffset":12,
		"min":[-1.0,
		-0.9914191961288452,
		-1.0],
		"max":[1.0,
		0.9914191961288452,
		1.0]
	},
	{
		"bufferView":9,
		"type":"VEC2",
		"componentType":5126,
		"count":527,
		"byteOffset":24,
		"min":[0.0,
		0.0],
		"max":[1.0,
		1.0]
	},
	{
		"bufferView":10,
		"type":"SCALAR",
		"componentType":5123,
		"count":480,
		"byteOffset":0,
		"min":[0],
		"max":[118]
	},
	{
		"bufferView":11,
		"type":"VEC3",
		"componentType":5126,
		"count":119,
		"byteOffset":0,
		"min":[-26.0,
		-4.0,
		-26.0],
		"max":[26.0,
		4.0,
		26.0]
	},
	{
		"bufferView":11,
		"type":"VEC3",
		"componentType":5126,
		"count":119,
		"byteOffset":12,
		"min":[-1.0,
		-1.0,
		-1.0],
		"max":[1.0,
		1.0,
		1.0]
	},
	{
		"bufferView":11,
		"type":"VEC2",
		"componentType":5126,
		"count":119,
		"byteOffset":24,
		"min":[0.0,
		0.0],
		"max":[1.0,
		1.0]
	},
	{
		"bufferView":12,
		"type":"SCALAR",
		"componentType":5123,
		"count":2880,
		"byteOffset":0,
		"min":[0],
		"max":[526]
	},
	{
		"bufferView":13,
		"type":"VEC3",
		"componentType":5126,
		"count":527,
		"byteOffset":0,
		"min":[-36.0,
		-5.0,
		-36.0],
		"max":[36.0,
		5.0,
		36.0]
	},
	{
		"bufferView":13,
		"type":"VEC3",
		"componentType":5126,
		"count":527,
		"byteOffset":12,
		"min":[-1.0,
		-0.9914191961288452,
		-1.0],
		"max":[1.0,
		0.9914191961288452,
		1.0]
	},
	{
		"bufferView":13,
		"type":"VEC2",
		"componentType":5126,
		"count":527,
		"byteOffset":24,
		"min":[0.0,
		0.0],
		"max":[1.0,
		1.0]
	},
	{
		"bufferView":14,
		"type":"SCALAR",
		"componentType":5123,
		"count":480,
		"byteOffset":0,
		"min":[0],
		"max":[118]
	},
	{
		"bufferView":15,
		"type":"VEC3",
		"componentType":5126,
		"count":119,
		"byteOffset":0,
		"min":[-26.0,
		-4.0,
		-26.0],
		"max":[26.0,
		4.0,
		26.0]
	},
	{
		"bufferView":15,
		"type":"VEC3",
		"componentType":5126,
		"count":119,
		"byteOffset":12,
		"min":[-1.0,
		-1.0,
		-1.0],
		"max":[1.0,
		1.0,
		1.0]
	},
	{
		"bufferView":15,
		"type":"VEC2",
		"componentType":5126,
		"count":119,
		"byteOffset":24,
		"min":[0.0,
		0.0],
		"max":[1.0,
		1.0]
	},
	{
		"bufferView":16,
		"type":"SCALAR",
		"componentType":5123,
		"count":1056,
		"byteOffset":0,
		"min":[0],
		"max":[252]
	},
	{
		"bufferView":17,
		"type":"VEC3",
		"componentType":5126,
		"count":253,
		"byteOffset":0,
		"min":[-100.0,
		-12.0,
		-100.0],
		"max":[100.0,
		12.0,
		100.0]
	},
	{
		"bufferView":17,
		"type":"VEC3",
		"componentType":5126,
		"count":253,
		"byteOffset":12,
		"min":[-0.9639507532119751,
		-1.0,
		-0.9639507532119751],
		"max":[0.9639507532119751,
		1.0,
		0.9639507532119751]
	},
	{
		"bufferView":17,
		"type":"VEC2",
		"componentType":5126,
		"count":253,
		"byteOffset":24,
		"min":[0.0,
		0.0],
		"max":[1.0,
		1.0]
	},
	{
		"bufferView":18,
		"type":"SCALAR",
		"componentType":5123,
		"count":3348,
		"byteOffset":0,
		"min":[0],
		"max":[1397]
	},
	{
		"bufferView":19,
		"type":"VEC3",
		"componentType":5126,
		"count":1398,
		"byteOffset":0,
		"min":[-95.45597839355469,
		-8.237018585205079,
		-89.00999450683594],
		"max":[113.36921691894531,
		8.231485366821289,
		85.523681640625]
	},
	{
		"bufferView":19,
		"type":"VEC3",
		"componentType":5126,
		"count":1398,
		"byteOffset":12,
		"min":[-0.9523414969444275,
		0.07685402780771256,
		-0.9805832505226135],
		"max":[0.9894734025001526,
		1.0,
		0.9548594355583191]
	},
	{
		"bufferView":19,
		"type":"VEC2",
		"componentType":5126,
		"count":1398,
		"byteOffset":24,
		"min":[0.0,
		0.0],
		"max":[1.0,
		1.0]
	},
	{
		"bufferView":20,
		"type":"SCALAR",
		"componentType":5123,
		"count":960,
		"byteOffset":0,
		"min":[0],
		"max":[208]
	},
	{
		"bufferView":21,
		"type":"VEC3",
		"componentType":5126,
		"count":209,
		"byteOffset":0,
		"min":[-90.12641906738281,
		-90.12641906738281,
		-90.12641906738281],
		"max":[90.12641906738281,
		43.154930114746097,
		90.12641143798828]
	},
	{
		"bufferView":21,
		"type":"VEC3",
		"componentType":5126,
		"count":209,
		"byteOffset":12,
		"min":[-1.0,
		-1.0,
		-0.9998602271080017],
		"max":[0.999992311000824,
		0.9997742176055908,
		0.9998552799224854]
	},
	{
		"bufferView":21,
		"type":"VEC2",
		"componentType":5126,
		"count":209,
		"byteOffset":24,
		"min":[0.0,
		0.0],
		"max":[1.0,
		0.8659999370574951]
	},
	{
		"bufferView":22,
		"type":"SCALAR",
		"componentType":5123,
		"count":960,
		"byteOffset":0,
		"min":[0],
		"max":[218]
	},
	{
		"bufferView":23,
		"type":"VEC3",
		"componentType":5126,
		"count":219,
		"byteOffset":0,
		"min":[-90.68403625488281,
		-41.524112701416019,
		-90.68403625488281],
		"max":[90.68403625488281,
		90.68403625488281,
		90.68403625488281]
	},
	{
		"bufferView":23,
		"type":"VEC3",
		"componentType":5126,
		"count":219,
		"byteOffset":12,
		"min":[-1.0,
		-1.0,
		-1.0],
		"max":[1.0,
		1.0,
		1.0]
	},
	{
		"bufferView":23,
		"type":"VEC2",
		"componentType":5126,
		"count":219,
		"byteOffset":24,
		"min":[0.0,
		0.0],
		"max":[1.0,
		0.8659999370574951]
	}],
	"bufferViews":[{
		"buffer":0,
		"byteOffset":0,
		"byteLength":5760,
		"target":34963
	},
	{
		"buffer":0,
		"byteOffset":5760,
		"byteLength":16864,
		"target":34962,
		"byteStride":32
	},
	{
		"buffer":1,
		"byteOffset":0,
		"byteLength":960,
		"target":34963
	},
	{
		"buffer":1,
		"byteOffset":960,
		"byteLength":3808,
		"target":34962,
		"byteStride":32
	},
	{
		"buffer":2,
		"byteOffset":0,
		"byteLength":5760,
		"target":34963
	},
	{
		"buffer":2,
		"byteOffset":5760,
		"byteLength":16864,
		"target":34962,
		"byteStride":32
	},
	{
		"buffer":3,
		"byteOffset":0,
		"byteLength":960,
		"target":34963
	},
	{
		"buffer":3,
		"byteOffset":960,
		"byteLength":3808,
		"target":34962,
		"byteStride":32
	},
	{
		"buffer":4,
		"byteOffset":0,
		"byteLength":5760,
		"target":34963
	},
	{
		"buffer":4,
		"byteOffset":5760,
		"byteLength":16864,
		"target":34962,
		"byteStride":32
	},
	{
		"buffer":5,
		"byteOffset":0,
		"byteLength":960,
		"target":34963
	},
	{
		"buffer":5,
		"byteOffset":960,
		"byteLength":3808,
		"target":34962,
		"byteStride":32
	},
	{
		"buffer":6,
		"byteOffset":0,
		"byteLength":5760,
		"target":34963
	},
	{
		"buffer":6,
		"byteOffset":5760,
		"byteLength":16864,
		"target":34962,
		"byteStride":32
	},
	{
		"buffer":7,
		"byteOffset":0,
		"byteLength":960,
		"target":34963
	},
	{
		"buffer":7,
		"byteOffset":960,
		"byteLength":3808,
		"target":34962,
		"byteStride":32
	},
	{
		"buffer":8,
		"byteOffset":0,
		"byteLength":2112,
		"target":34963
	},
	{
		"buffer":8,
		"byteOffset":2112,
		"byteLength":8096,
		"target":34962,
		"byteStride":32
	},
	{
		"buffer":9,
		"byteOffset":0,
		"byteLength":6696,
		"target":34963
	},
	{
		"buffer":9,
		"byteOffset":6696,
		"byteLength":44736,
		"target":34962,
		"byteStride":32
	},
	{
		"buffer":10,
		"byteOffset":0,
		"byteLength":1920,
		"target":34963
	},
	{
		"buffer":10,
		"byteOffset":1920,
		"byteLength":6688,
		"target":34962,
		"byteStride":32
	},
	{
		"buffer":11,
		"byteOffset":0,
		"byteLength":1920,
		"target":34963
	},
	{
		"buffer":11,
		"byteOffset":1920,
		"byteLength":7008,
		"target":34962,
		"byteStride":32
	}],
	"buffers":[{
		"uri":"data:application/octet-stream;base64,",
		"byteLength":22624
	},
	{
		"uri":"data:application/octet-stream;base64,",
		"byteLength":4768
	},
	{
		"uri":"data:application/octet-stream;base64,",
		"byteLength":22624
	},
	{
		"uri":"data:application/octet-stream;base64,",
		"byteLength":4768
	},
	{
		"uri":"data:application/octet-stream;base64,",
		"byteLength":22624
	},
	{
		"uri":"data:application/octet-stream;base64,",
		"byteLength":4768
	},
	{
		"uri":"data:application/octet-stream;base64,",
		"byteLength":22624
	},
	{
		"uri":"data:application/octet-stream;base64,",
		"byteLength":4768
	},
	{
		"uri":"data:application/octet-stream;base64,",
		"byteLength":10208
	},
	{
		"uri":"data:application/octet-stream;base64,",
		"byteLength":51432
	},
	{
		"uri":"data:application/octet-stream;base64,",
		"byteLength":8608
	},
	{
		"uri":"data:application/octet-stream;base64,",
		"byteLength":8928
	}]
}