{
    "asset" : {
        "generator" : "Khronos glTF Blender I/O v1.7.33",
        "version" : "2.0"
    },
    "extensionsUsed" : [
        "KHR_texture_transform"
    ],
    "extensionsRequired" : [
        "KHR_texture_transform"
    ],
    "scene" : 0,
    "scenes" : [
        {
            "name" : "Scene",
            "nodes" : [
                0
            ]
        }
    ],
    "nodes" : [
        {
            "mesh" : 0,
            "name" : "Piano.021",
            "rotation" : [
                0.5,
                -0.4999999701976776,
                -0.4999999701976776,
                -0.5
            ],
            "translation" : [
                -1.9458292722702026,
                1.9271011352539062,
                11.654363632202148
            ]
        }
    ],
    "materials" : [
        {
            "doubleSided" : true,
            "name" : "hall",
            "normalTexture" : {
                "extensions" : {
                    "KHR_texture_transform" : {
                        "offset" : [
                            0,
                            -7
                        ],
                        "scale" : [
                            8,
                            8
                        ]
                    }
                },
                "index" : 0
            },
            "pbrMetallicRoughness" : {
                "baseColorTexture" : {
                    "extensions" : {
                        "KHR_texture_transform" : {
                            "offset" : [
                                0,
                                -7
                            ],
                            "scale" : [
                                8,
                                8
                            ]
                        }
                    },
                    "index" : 1
                },
                "metallicFactor" : 0.27272728085517883,
                "roughnessFactor" : 0.5505406856536865
            }
        }
    ],
    "meshes" : [
        {
            "name" : "Piano.030",
            "primitives" : [
                {
                    "attributes" : {
                        "POSITION" : 0,
                        "NORMAL" : 1,
                        "TEXCOORD_0" : 2,
                        "TEXCOORD_1" : 3,
                        "TEXCOORD_2" : 4,
                        "TEXCOORD_3" : 5
                    },
                    "indices" : 6,
                    "material" : 0
                }
            ]
        }
    ],
    "textures" : [
        {
            "sampler" : 0,
            "source" : 0
        },
        {
            "sampler" : 0,
            "source" : 1
        }
    ],
    "images" : [
        {
            "bufferView" : 7,
            "mimeType" : "image/png",
            "name" : "NormalMap(1)"
        },
        {
            "bufferView" : 8,
            "mimeType" : "image/jpeg",
            "name" : "text"
        }
    ],
    "accessors" : [
        {
            "bufferView" : 0,
            "componentType" : 5126,
            "count" : 63,
            "max" : [
                25.651554107666016,
                5.543454647064209,
                -1.8899214267730713
            ],
            "min" : [
                -2.3484458923339844,
                -9.454626083374023,
                -1.9092620611190796
            ],
            "type" : "VEC3"
        },
        {
            "bufferView" : 1,
            "componentType" : 5126,
            "count" : 63,
            "type" : "VEC3"
        },
        {
            "bufferView" : 2,
            "componentType" : 5126,
            "count" : 63,
            "type" : "VEC2"
        },
        {
            "bufferView" : 3,
            "componentType" : 5126,
            "count" : 63,
            "type" : "VEC2"
        },
        {
            "bufferView" : 4,
            "componentType" : 5126,
            "count" : 63,
            "type" : "VEC2"
        },
        {
            "bufferView" : 5,
            "componentType" : 5126,
            "count" : 63,
            "type" : "VEC2"
        },
        {
            "bufferView" : 6,
            "componentType" : 5123,
            "count" : 111,
            "type" : "SCALAR"
        }
    ],
    "bufferViews" : [
        {
            "buffer" : 0,
            "byteLength" : 756,
            "byteOffset" : 0
        },
        {
            "buffer" : 0,
            "byteLength" : 756,
            "byteOffset" : 756
        },
        {
            "buffer" : 0,
            "byteLength" : 504,
            "byteOffset" : 1512
        },
        {
            "buffer" : 0,
            "byteLength" : 504,
            "byteOffset" : 2016
        },
        {
            "buffer" : 0,
            "byteLength" : 504,
            "byteOffset" : 2520
        },
        {
            "buffer" : 0,
            "byteLength" : 504,
            "byteOffset" : 3024
        },
        {
            "buffer" : 0,
            "byteLength" : 222,
            "byteOffset" : 3528
        },
        {
            "buffer" : 0,
            "byteLength" : 160756,
            "byteOffset" : 3752
        },
        {
            "buffer" : 0,
            "byteLength" : 1918992,
            "byteOffset" : 164508
        }
    ],
    "samplers" : [
        {
            "magFilter" : 9729,
            "minFilter" : 9987
        }
    ],
    "buffers" : [
        {
            "byteLength" : 2083500,
            "uri" : "data:application/octet-stream;base64,"
        }
    ]
}
