# WaveFront *.obj file (generated by Cinema 4D)

mtllib ./pavimentovilla.mtl

v -491.922377 6.011935 459.883076
v -491.922377 -1.695188 459.883076
v 544.584485 6.011935 459.883076
v 544.584485 -1.695188 459.883076
v 544.584485 6.011935 -499.916762
v 544.584485 -1.695188 -499.916762
v -491.922377 6.011935 -499.916762
v -491.922377 -1.695188 -499.916762
v 536.420898 6.011935 -499.916762
v 205.949982 6.011935 -499.916762
v 205.950043 -1.695188 -499.916762
v 536.421021 -1.695188 -499.916762
v 205.949982 6.011935 -717.348843
v 536.420898 6.011935 -717.348843
v 536.421021 -1.695188 -717.348843
v 205.950043 -1.695188 -717.348843
# 16 vertices

vn 0.000000 1.000000 0.000000
vn 0.000000 -1.000000 0.000000
vn -0.000000 -1.000000 0.000000
vn -0.000000 -1.000000 0.000000
vn 0.000000 0.000000 1.000000
vn 1.000000 0.000000 0.000000
vn -1.000000 0.000000 0.000000
vn 0.000000 0.000000 -1.000000
# 8 normals

vt 0.624523 0.747263 0.000000
vt 0.858308 0.086851 0.000000
vt 0.142730 0.086851 0.000000
vt 0.142730 0.747263 0.000000
vt -0.952930 1.066042 0.000000
vt -0.628079 1.077741 0.000000
vt -0.723413 0.774111 0.000000
vt -0.942133 0.766234 0.000000
vt -0.939088 0.681702 0.000000
vt -0.614237 0.693402 0.000000
vt -0.601231 0.332286 0.000000
vt -0.926082 0.320587 0.000000
vt -0.611227 1.071729 0.000000
vt -0.311419 1.082527 0.000000
vt -0.298414 0.721412 0.000000
vt -0.598221 0.710614 0.000000
vt -0.619840 0.777842 0.000000
vt -0.617394 0.709923 0.000000
vt -0.720967 0.706193 0.000000
vt -0.597623 0.694000 0.000000
vt -0.297815 0.704798 0.000000
vt -0.284810 0.343682 0.000000
vt -0.584617 0.332885 0.000000
vt 0.852672 0.747263 0.000000
vt 0.624523 0.896872 0.000000
vt 0.852672 0.896872 0.000000
vt 0.008312 0.607099 0.000000
vt 0.010873 0.607099 0.000000
vt 0.010873 0.245749 0.000000
vt 0.008312 0.245749 0.000000
vt -0.669416 0.132368 0.000000
vt -0.669416 0.493717 0.000000
vt -0.565776 0.493717 0.000000
vt -0.565776 0.132368 0.000000
vt -0.346914 0.493717 0.000000
vt -0.346914 0.132368 0.000000
vt 0.144293 0.772787 0.000000
vt 0.858308 0.747263 0.000000
vt 0.675061 0.991688 0.000000
vt 0.675061 0.691685 0.000000
vt 0.672501 0.691685 0.000000
vt 0.638807 0.790749 0.000000
# 42 texture coordinates

o Cube
usemtl Oak Polished - Red
f 7/4/1 1/3/1 3/2/1 10/1/1
f 8/8/2 11/7/4 4/6/3 2/5/2
f 2/12/5 4/11/5 3/10/5 1/9/5
f 4/16/6 6/15/6 5/14/6 3/13/6
f 16/19/2 15/18/2 12/17/2 11/7/2
f 8/23/7 2/22/7 1/21/7 7/20/7
f 14/26/1 13/25/1 10/1/1 9/24/1
f 6/30/8 12/29/8 9/28/8 5/27/8
f 11/34/8 10/33/8 9/32/8 12/31/8
f 8/36/8 7/35/8 10/33/8 11/34/8
f 3/2/1 9/24/1 10/1/1
f 3/2/1 5/38/1 9/24/1
f 12/41/4 6/40/2 4/39/3
f 11/7/4 12/17/4 4/6/3

