# WaveFront *.obj file (generated by Cinema 4D)

mtllib ./quadri.mtl

v -130.820033 23.440413 41.690998
v -100.820033 23.440413 41.690998
v -70.820033 23.440413 41.690998
v -130.820033 43.440413 41.690998
v -100.820033 43.440413 41.690998
v -70.820033 43.440413 41.690998
v -130.820033 63.440413 41.690998
v -100.820033 63.440413 41.690998
v -70.820033 63.440413 41.690998
# 9 vertices

vn 0.000000 0.000000 1.000000
# 1 normal

vt 0.000000 0.000000 0.000000
vt 0.000000 0.500000 0.000000
vt 0.500000 0.500000 0.000000
vt 0.500000 0.000000 0.000000
vt 1.000000 0.500000 0.000000
vt 1.000000 0.000000 0.000000
vt 0.000000 1.000000 0.000000
vt 0.500000 1.000000 0.000000
vt 1.000000 1.000000 0.000000
# 9 texture coordinates

o Plane.2
usemtl Mat.1
f 2/4/1 5/3/1 4/2/1 1/1/1
f 3/6/1 6/5/1 5/3/1 2/4/1
f 5/3/1 8/8/1 7/7/1 4/2/1
f 6/5/1 9/9/1 8/8/1 5/3/1

v 68.036717 23.440413 41.690998
v 98.036717 23.440413 41.690998
v 128.036717 23.440413 41.690998
v 68.036717 43.440413 41.690998
v 98.036717 43.440413 41.690998
v 128.036717 43.440413 41.690998
v 68.036717 63.440413 41.690998
v 98.036717 63.440413 41.690998
v 128.036717 63.440413 41.690998
# 9 vertices

# 0 normal

# 0 texture coordinate

o Plane.1
usemtl Mat.1
f 11/4/1 14/3/1 13/2/1 10/1/1
f 12/6/1 15/5/1 14/3/1 11/4/1
f 14/3/1 17/8/1 16/7/1 13/2/1
f 15/5/1 18/9/1 17/8/1 14/3/1

v -41.252862 61.971070 270.131406
v -41.252862 41.971070 270.131406
v -41.252862 21.971070 270.131406
v -41.252862 61.971070 250.131406
v -41.252862 41.971070 250.131406
v -41.252862 21.971070 250.131406
v -41.252862 61.971070 230.131406
v -41.252862 41.971070 230.131406
v -41.252862 21.971070 230.131406
# 9 vertices

vn 1.000000 0.000000 0.000000
# 1 normal

# 0 texture coordinate

o Plane.3
usemtl Mat.1
f 20/4/2 23/3/2 22/2/2 19/1/2
f 21/6/2 24/5/2 23/3/2 20/4/2
f 23/3/2 26/8/2 25/7/2 22/2/2
f 24/5/2 27/9/2 26/8/2 23/3/2

v -41.252862 61.971070 180.278911
v -41.252862 41.971070 180.278911
v -41.252862 21.971070 180.278911
v -41.252862 61.971070 160.278911
v -41.252862 41.971070 160.278911
v -41.252862 21.971070 160.278911
v -41.252862 61.971070 140.278911
v -41.252862 41.971070 140.278911
v -41.252862 21.971070 140.278911
# 9 vertices

# 0 normal

# 0 texture coordinate

o Plane.2_1
usemtl Mat.1
f 29/4/2 32/3/2 31/2/2 28/1/2
f 30/6/2 33/5/2 32/3/2 29/4/2
f 32/3/2 35/8/2 34/7/2 31/2/2
f 33/5/2 36/9/2 35/8/2 32/3/2

v -41.252862 61.971070 99.850802
v -41.252862 41.971070 99.850802
v -41.252862 21.971070 99.850802
v -41.252862 61.971070 79.850802
v -41.252862 41.971070 79.850802
v -41.252862 21.971070 79.850802
v -41.252862 61.971070 59.850802
v -41.252862 41.971070 59.850802
v -41.252862 21.971070 59.850802
# 9 vertices

# 0 normal

# 0 texture coordinate

o Plane.1_1
usemtl Mat.1
f 38/4/2 41/3/2 40/2/2 37/1/2
f 39/6/2 42/5/2 41/3/2 38/4/2
f 41/3/2 44/8/2 43/7/2 40/2/2
f 42/5/2 45/9/2 44/8/2 41/3/2

v 40.850071 21.971070 272.957214
v 40.850071 41.971070 272.957214
v 40.850071 61.971070 272.957214
v 40.850071 21.971070 252.957214
v 40.850071 41.971070 252.957214
v 40.850071 61.971070 252.957214
v 40.850071 21.971070 232.957214
v 40.850071 41.971070 232.957214
v 40.850071 61.971070 232.957214
# 9 vertices

vn -1.000000 0.000000 0.000000
# 1 normal

# 0 texture coordinate

o Plane.3_1
usemtl Mat.1
f 47/4/3 50/3/3 49/2/3 46/1/3
f 48/6/3 51/5/3 50/3/3 47/4/3
f 50/3/3 53/8/3 52/7/3 49/2/3
f 51/5/3 54/9/3 53/8/3 50/3/3

v 40.850071 21.971070 183.104719
v 40.850071 41.971070 183.104719
v 40.850071 61.971070 183.104719
v 40.850071 21.971070 163.104719
v 40.850071 41.971070 163.104719
v 40.850071 61.971070 163.104719
v 40.850071 21.971070 143.104719
v 40.850071 41.971070 143.104719
v 40.850071 61.971070 143.104719
# 9 vertices

# 0 normal

# 0 texture coordinate

o Plane.2_2
usemtl Mat.1
f 56/4/3 59/3/3 58/2/3 55/1/3
f 57/6/3 60/5/3 59/3/3 56/4/3
f 59/3/3 62/8/3 61/7/3 58/2/3
f 60/5/3 63/9/3 62/8/3 59/3/3

v 40.850071 21.971070 102.676611
v 40.850071 41.971070 102.676611
v 40.850071 61.971070 102.676611
v 40.850071 21.971070 82.676611
v 40.850071 41.971070 82.676611
v 40.850071 61.971070 82.676611
v 40.850071 21.971070 62.676611
v 40.850071 41.971070 62.676611
v 40.850071 61.971070 62.676611
# 9 vertices

# 0 normal

# 0 texture coordinate

o Plane.1_2
usemtl Mat.1
f 65/4/3 68/3/3 67/2/3 64/1/3
f 66/6/3 69/5/3 68/3/3 65/4/3
f 68/3/3 71/8/3 70/7/3 67/2/3
f 69/5/3 72/9/3 71/8/3 68/3/3

