# WaveFront *.obj file (generated by Cinema 4D)

mtllib ./render1.mtl

v 144.122950 21.993316 41.472234
v 106.798034 21.993316 41.472196
v 69.473118 21.993316 41.472159
v 144.122950 40.616897 41.478242
v 106.798034 40.616897 41.478204
v 69.473118 40.616897 41.478166
v 144.122950 59.240478 41.484250
v 106.798034 59.240478 41.484212
v 69.473118 59.240478 41.484174
# 9 vertices

vn 0.000001 0.000323 -1.000000
vn 0.000001 0.000323 -1.000000
vn 0.000001 0.000323 -1.000000
vn 0.000001 0.000323 -1.000000
vn 0.000001 0.000323 -1.000000
vn 0.000001 0.000323 -1.000000
vn 0.000001 0.000323 -1.000000
# 7 normals

vt 0.000000 0.000000 0.000000
vt 0.000000 0.500000 0.000000
vt 0.500000 0.500000 0.000000
vt 0.500000 0.000000 0.000000
vt 1.000000 0.500000 0.000000
vt 1.000000 0.000000 0.000000
vt 0.000000 1.000000 0.000000
vt 0.500000 1.000000 0.000000
vt 1.000000 1.000000 0.000000
# 9 texture coordinates

o Plane.2
usemtl auclairedelune
f 2/4/3 5/3/2 4/2/1 1/1/1
f 3/6/5 6/5/4 5/3/2 2/4/3
f 5/3/2 8/8/6 7/7/1 4/2/1
f 6/5/4 9/9/7 8/8/6 5/3/2

