# WaveFront *.obj file (generated by Cinema 4D)

mtllib ./renderrobot.mtl

v -41.000148 17.171070 149.963786
v -41.000148 17.171070 110.730670
v -41.000148 17.171070 71.497554
v -41.000148 41.971070 149.963786
v -41.000148 41.971070 110.730670
v -41.000148 41.971070 71.497554
v -41.000148 66.771070 149.963786
v -41.000148 66.771070 110.730670
v -41.000148 66.771070 71.497554
# 9 vertices

vn 1.000000 0.000000 0.000000
# 1 normal

vt 0.000000 0.000000 0.000000
vt 0.000000 0.500000 0.000000
vt 0.500000 0.500000 0.000000
vt 0.500000 0.000000 0.000000
vt 1.000000 0.500000 0.000000
vt 1.000000 0.000000 0.000000
vt 0.000000 1.000000 0.000000
vt 0.500000 1.000000 0.000000
vt 1.000000 1.000000 0.000000
# 9 texture coordinates

o render_pikachu.1
usemtl render 3
f 2/4/1 5/3/1 4/2/1 1/1/1
f 3/6/1 6/5/1 5/3/1 2/4/1
f 5/3/1 8/8/1 7/7/1 4/2/1
f 6/5/1 9/9/1 8/8/1 5/3/1

