# WaveFront *.obj file (generated by Cinema 4D)

mtllib ./sfondo-obj.mtl

v -1019.993859 -184.791719 862.643976
v -1019.923021 -184.032295 -39.003782
v -1019.852183 -183.272871 -940.651540
v -1019.993859 313.356216 863.063548
v -1019.923021 314.115639 -38.584211
v -1019.852183 314.875063 -940.231969
v -1019.993859 811.504150 863.483119
v -1019.923021 812.263574 -38.164640
v -1019.852183 813.022997 -939.812398
# 9 vertices

vn 1.000000 -0.000000 0.000079
vn 1.000000 -0.000000 0.000079
vn 1.000000 -0.000000 0.000079
vn 1.000000 -0.000000 0.000079
vn 1.000000 -0.000000 0.000079
vn 1.000000 -0.000000 0.000079
vn 1.000000 -0.000000 0.000079
vn 1.000000 -0.000000 0.000079
vn 1.000000 -0.000000 0.000079
# 9 normals

vt 0.000000 0.000000 0.000000
vt 0.000000 0.500000 0.000000
vt 0.500000 0.500000 0.000000
vt 0.500000 0.000000 0.000000
vt 1.000000 0.500000 0.000000
vt 1.000000 0.000000 0.000000
vt 0.000000 1.000000 0.000000
vt 0.500000 1.000000 0.000000
vt 1.000000 1.000000 0.000000
# 9 texture coordinates

o Plane.3
usemtl sfondo finestra
f 2/4/4 5/3/3 4/2/2 1/1/1
f 3/6/6 6/5/5 5/3/3 2/4/4
f 5/3/3 8/8/8 7/7/7 4/2/2
f 6/5/5 9/9/9 8/8/8 5/3/3

